<?xml version="1.0" encoding="utf-8"?>
<!-- Generator: Adobe Illustrator 16.0.0, SVG Export Plug-In . SVG Version: 6.00 Build 0)  -->
<!DOCTYPE svg PUBLIC "-//W3C//DTD SVG 1.1//EN" "http://www.w3.org/Graphics/SVG/1.1/DTD/svg11.dtd">
<svg version="1.1" id="Layer_1" xmlns="http://www.w3.org/2000/svg" xmlns:xlink="http://www.w3.org/1999/xlink" x="0px" y="0px"
	 width="461.333px" height="206.667px" viewBox="0 0 461.333 206.667" enable-background="new 0 0 461.333 206.667"
	 xml:space="preserve">
<g opacity="0.3">
	<g>
		<path fill="#8DC254" d="M117.98,84.747L65.861,46.574c-0.853-0.625-2.012-0.625-2.863,0L10.879,84.747
			c-1.086,0.777-1.333,2.291-0.554,3.375c0.472,0.659,1.214,1.008,1.967,1.008c0.487,0,0.98-0.146,1.409-0.453l4.982-3.577V157.7
			c0,1.335,1.082,2.418,2.419,2.418h86.654c1.337,0,2.42-1.083,2.42-2.418V85.099l4.981,3.577c0.426,0.308,0.92,0.453,1.408,0.453
			c0.754,0,1.496-0.349,1.969-1.008C119.312,87.038,119.065,85.524,117.98,84.747L117.98,84.747z M105.338,155.28H23.521v-73.69
			c0.023-0.023,0.05-0.047,0.072-0.072L64.43,51.526l40.835,29.991c0.023,0.025,0.049,0.049,0.073,0.072V155.28z M105.338,155.28"/>
		<g>
			<g>
				<path fill="#8DC254" d="M46.996,89.048V94c0,2.199,1.783,3.983,3.984,3.983s3.984-1.784,3.984-3.983v-4.951
					c0-2.2-1.783-3.985-3.984-3.985S46.996,86.848,46.996,89.048L46.996,89.048z M46.996,89.048"/>
				<path fill="#8DC254" d="M50.98,108.048c-2.201,0-3.984,1.783-3.984,3.983v1.593c0,2.204,1.783,3.985,3.984,3.985
					s3.984-1.781,3.984-3.985v-1.593C54.965,109.832,53.182,108.048,50.98,108.048L50.98,108.048z M50.98,108.048"/>
			</g>
			<g>
				<path fill="#8DC254" d="M73.893,89.048V94c0,2.199,1.785,3.983,3.985,3.983c2.201,0,3.985-1.784,3.985-3.983v-4.951
					c0-2.2-1.784-3.985-3.985-3.985C75.678,85.063,73.893,86.848,73.893,89.048L73.893,89.048z M73.893,89.048"/>
				<path fill="#8DC254" d="M77.878,108.048c-2.2,0-3.985,1.783-3.985,3.983v1.593c0,2.204,1.785,3.985,3.985,3.985
					c2.201,0,3.985-1.781,3.985-3.985v-1.593C81.863,109.832,80.079,108.048,77.878,108.048L77.878,108.048z M77.878,108.048"/>
			</g>
		</g>
	</g>
	<g>
		<path fill="#8DC254" stroke="#FFFFFF" stroke-width="2.6775" stroke-miterlimit="10" d="M402.59,19.734h-35.738
			c-1.877,0-3.397,1.521-3.397,3.395v62.499h-23.293V6.837c0-1.875-1.521-3.396-3.396-3.396h-20.424
			c-1.874,0-3.393,1.52-3.393,3.396v47.654h-7.504V35.695c0-1.874-1.521-3.395-3.395-3.395c-1.875,0-3.396,1.521-3.396,3.395v18.796
			h-3.671c-1.878,0-3.396,1.52-3.396,3.395v16.517H274.21V61.838c0-1.875-1.522-3.396-3.396-3.396c-1.874,0-3.396,1.522-3.396,3.396
			v12.566h-6.831c-1.876,0-3.396,1.52-3.396,3.394v92.686c0,1.873,1.52,3.393,3.396,3.393H402.59c1.873,0,3.395-1.52,3.395-3.393
			V23.128C405.984,21.254,404.463,19.734,402.59,19.734L402.59,19.734z M291.588,167.088h-27.605V81.194h27.605V167.088z
			 M333.371,167.088h-34.994V61.28h34.994V167.088z M333.371,54.491h-13.633V10.232h13.633V54.491z M363.451,167.088h-23.29V92.417
			h23.29V167.088z M399.195,167.088h-28.948V26.523h28.948V167.088z M399.195,167.088"/>
		<path fill="#8DC254" d="M308.378,69.697c-1.876,0-3.396,1.521-3.396,3.396V77.6c0,1.875,1.52,3.396,3.396,3.396
			c1.875,0,3.396-1.52,3.396-3.396v-4.507C311.773,71.217,310.253,69.697,308.378,69.697L308.378,69.697z M308.378,69.697"/>
		<path fill="#8DC254" d="M322.86,69.697c-1.876,0-3.396,1.521-3.396,3.396V77.6c0,1.875,1.52,3.396,3.396,3.396
			c1.873,0,3.394-1.52,3.394-3.396v-4.507C326.254,71.217,324.733,69.697,322.86,69.697L322.86,69.697z M322.86,69.697"/>
		<path fill="#8DC254" d="M326.48,38.561c-1.876,0-3.396,1.519-3.396,3.395v4.508c0,1.876,1.521,3.395,3.396,3.395
			c1.875,0,3.393-1.519,3.393-3.395v-4.508C329.873,40.08,328.355,38.561,326.48,38.561L326.48,38.561z M326.48,38.561"/>
		<path fill="#8DC254" d="M326.48,20.82c-1.876,0-3.396,1.52-3.396,3.396v4.507c0,1.875,1.521,3.395,3.396,3.395
			c1.875,0,3.393-1.52,3.393-3.395v-4.507C329.873,22.34,328.355,20.82,326.48,20.82L326.48,20.82z M326.48,20.82"/>
		<path fill="#8DC254" d="M308.378,89.463c-1.876,0-3.396,1.52-3.396,3.395v4.509c0,1.876,1.52,3.395,3.396,3.395
			c1.875,0,3.396-1.519,3.396-3.395v-4.509C311.773,90.983,310.253,89.463,308.378,89.463L308.378,89.463z M308.378,89.463"/>
		<path fill="#8DC254" d="M322.86,89.463c-1.876,0-3.396,1.52-3.396,3.395v4.509c0,1.876,1.52,3.395,3.396,3.395
			c1.873,0,3.394-1.519,3.394-3.395v-4.509C326.254,90.983,324.733,89.463,322.86,89.463L322.86,89.463z M322.86,89.463"/>
		<path fill="#8DC254" d="M308.378,107.842c-1.876,0-3.396,1.521-3.396,3.396v4.506c0,1.878,1.52,3.398,3.396,3.398
			c1.875,0,3.396-1.521,3.396-3.398v-4.506C311.773,109.364,310.253,107.842,308.378,107.842L308.378,107.842z M308.378,107.842"/>
		<path fill="#8DC254" d="M322.86,107.842c-1.876,0-3.396,1.521-3.396,3.396v4.506c0,1.878,1.52,3.398,3.396,3.398
			c1.873,0,3.394-1.521,3.394-3.398v-4.506C326.254,109.364,324.733,107.842,322.86,107.842L322.86,107.842z M322.86,107.842"/>
		<path fill="#8DC254" d="M308.378,127.609c-1.876,0-3.396,1.52-3.396,3.395v4.509c0,1.875,1.52,3.396,3.396,3.396
			c1.875,0,3.396-1.521,3.396-3.396v-4.509C311.773,129.128,310.253,127.609,308.378,127.609L308.378,127.609z M308.378,127.609"/>
		<path fill="#8DC254" d="M322.86,127.609c-1.876,0-3.396,1.52-3.396,3.395v4.509c0,1.875,1.52,3.396,3.396,3.396
			c1.873,0,3.394-1.521,3.394-3.396v-4.509C326.254,129.128,324.733,127.609,322.86,127.609L322.86,127.609z M322.86,127.609"/>
		<path fill="#8DC254" d="M308.378,147.375c-1.876,0-3.396,1.518-3.396,3.395v4.509c0,1.875,1.52,3.393,3.396,3.393
			c1.875,0,3.396-1.518,3.396-3.393v-4.509C311.773,148.893,310.253,147.375,308.378,147.375L308.378,147.375z M308.378,147.375"/>
		<path fill="#8DC254" d="M322.86,147.375c-1.876,0-3.396,1.518-3.396,3.395v4.509c0,1.875,1.52,3.393,3.396,3.393
			c1.873,0,3.394-1.518,3.394-3.393v-4.509C326.254,148.893,324.733,147.375,322.86,147.375L322.86,147.375z M322.86,147.375"/>
		<path fill="#8DC254" d="M378.979,69.697c-1.877,0-3.396,1.521-3.396,3.396V77.6c0,1.875,1.519,3.396,3.396,3.396
			c1.873,0,3.395-1.52,3.395-3.396v-4.507C382.373,71.217,380.852,69.697,378.979,69.697L378.979,69.697z M378.979,69.697"/>
		<path fill="#8DC254" d="M391.65,69.697c-1.877,0-3.396,1.521-3.396,3.396V77.6c0,1.875,1.52,3.396,3.396,3.396
			c1.875,0,3.396-1.52,3.396-3.396v-4.507C395.046,71.217,393.525,69.697,391.65,69.697L391.65,69.697z M391.65,69.697"/>
		<path fill="#8DC254" d="M378.979,89.463c-1.877,0-3.396,1.52-3.396,3.395v4.509c0,1.876,1.519,3.395,3.396,3.395
			c1.873,0,3.395-1.519,3.395-3.395v-4.509C382.373,90.983,380.852,89.463,378.979,89.463L378.979,89.463z M378.979,89.463"/>
		<path fill="#8DC254" d="M391.65,89.463c-1.877,0-3.396,1.52-3.396,3.395v4.509c0,1.876,1.52,3.395,3.396,3.395
			c1.875,0,3.396-1.519,3.396-3.395v-4.509C395.046,90.983,393.525,89.463,391.65,89.463L391.65,89.463z M391.65,89.463"/>
		<path fill="#8DC254" d="M378.979,107.842c-1.877,0-3.396,1.521-3.396,3.396v4.506c0,1.878,1.519,3.398,3.396,3.398
			c1.873,0,3.395-1.521,3.395-3.398v-4.506C382.373,109.364,380.852,107.842,378.979,107.842L378.979,107.842z M378.979,107.842"/>
		<path fill="#8DC254" d="M391.65,107.842c-1.877,0-3.396,1.521-3.396,3.396v4.506c0,1.878,1.52,3.398,3.396,3.398
			c1.875,0,3.396-1.521,3.396-3.398v-4.506C395.046,109.364,393.525,107.842,391.65,107.842L391.65,107.842z M391.65,107.842"/>
		<path fill="#8DC254" d="M378.979,31.966c-1.877,0-3.396,1.519-3.396,3.396v4.507c0,1.876,1.519,3.396,3.396,3.396
			c1.873,0,3.395-1.52,3.395-3.396v-4.507C382.373,33.485,380.852,31.966,378.979,31.966L378.979,31.966z M378.979,31.966"/>
		<path fill="#8DC254" d="M391.65,31.966c-1.877,0-3.396,1.519-3.396,3.396v4.507c0,1.876,1.52,3.396,3.396,3.396
			c1.875,0,3.396-1.52,3.396-3.396v-4.507C395.046,33.485,393.525,31.966,391.65,31.966L391.65,31.966z M391.65,31.966"/>
		<path fill="#8DC254" d="M378.979,50.345c-1.877,0-3.396,1.519-3.396,3.395v4.508c0,1.875,1.519,3.395,3.396,3.395
			c1.873,0,3.395-1.52,3.395-3.395V53.74C382.373,51.864,380.852,50.345,378.979,50.345L378.979,50.345z M378.979,50.345"/>
		<path fill="#8DC254" d="M391.65,50.345c-1.877,0-3.396,1.519-3.396,3.395v4.508c0,1.875,1.52,3.395,3.396,3.395
			c1.875,0,3.396-1.52,3.396-3.395V53.74C395.046,51.864,393.525,50.345,391.65,50.345L391.65,50.345z M391.65,50.345"/>
		<path fill="#8DC254" d="M378.979,127.609c-1.877,0-3.396,1.52-3.396,3.395v4.509c0,1.875,1.519,3.396,3.396,3.396
			c1.873,0,3.395-1.521,3.395-3.396v-4.509C382.373,129.128,380.852,127.609,378.979,127.609L378.979,127.609z M378.979,127.609"/>
		<path fill="#8DC254" d="M391.65,127.609c-1.877,0-3.396,1.52-3.396,3.395v4.509c0,1.875,1.52,3.396,3.396,3.396
			c1.875,0,3.396-1.521,3.396-3.396v-4.509C395.046,129.128,393.525,127.609,391.65,127.609L391.65,127.609z M391.65,127.609"/>
		<path fill="#8DC254" d="M378.979,147.375c-1.877,0-3.396,1.518-3.396,3.395v4.509c0,1.875,1.519,3.393,3.396,3.393
			c1.873,0,3.395-1.518,3.395-3.393v-4.509C382.373,148.893,380.852,147.375,378.979,147.375L378.979,147.375z M378.979,147.375"/>
		<path fill="#8DC254" d="M391.65,147.375c-1.877,0-3.396,1.518-3.396,3.395v4.509c0,1.875,1.52,3.393,3.396,3.393
			c1.875,0,3.396-1.518,3.396-3.393v-4.509C395.046,148.893,393.525,147.375,391.65,147.375L391.65,147.375z M391.65,147.375"/>
		<g>
			<path fill="#8DC254" stroke="#FFFFFF" stroke-width="1.785" stroke-miterlimit="10" d="M284.121,87.799h-12.309
				c-1.877,0-3.396,1.52-3.396,3.396c0,1.875,1.52,3.396,3.396,3.396h12.309c1.873,0,3.395-1.521,3.395-3.396
				C287.516,89.319,285.994,87.799,284.121,87.799L284.121,87.799z M284.121,87.799"/>
			<path fill="#8DC254" stroke="#FFFFFF" stroke-width="1.785" stroke-miterlimit="10" d="M284.121,100.954h-12.309
				c-1.877,0-3.396,1.521-3.396,3.395c0,1.876,1.52,3.396,3.396,3.396h12.309c1.873,0,3.395-1.52,3.395-3.396
				C287.516,102.474,285.994,100.954,284.121,100.954L284.121,100.954z M284.121,100.954"/>
			<path fill="#8DC254" stroke="#FFFFFF" stroke-width="1.785" stroke-miterlimit="10" d="M284.121,114.532h-12.309
				c-1.877,0-3.396,1.521-3.396,3.395c0,1.875,1.52,3.396,3.396,3.396h12.309c1.873,0,3.395-1.521,3.395-3.396
				C287.516,116.052,285.994,114.532,284.121,114.532L284.121,114.532z M284.121,114.532"/>
			<path fill="#8DC254" stroke="#FFFFFF" stroke-width="1.785" stroke-miterlimit="10" d="M284.121,127.685h-12.309
				c-1.877,0-3.396,1.521-3.396,3.397c0,1.873,1.52,3.395,3.396,3.395h12.309c1.873,0,3.395-1.521,3.395-3.395
				C287.516,129.206,285.994,127.685,284.121,127.685L284.121,127.685z M284.121,127.685"/>
			<path fill="#8DC254" stroke="#FFFFFF" stroke-width="1.785" stroke-miterlimit="10" d="M284.121,141.267h-12.309
				c-1.877,0-3.396,1.517-3.396,3.393c0,1.875,1.52,3.395,3.396,3.395h12.309c1.873,0,3.395-1.52,3.395-3.395
				C287.516,142.784,285.994,141.267,284.121,141.267L284.121,141.267z M284.121,141.267"/>
			<path fill="#8DC254" stroke="#FFFFFF" stroke-width="1.785" stroke-miterlimit="10" d="M284.121,154.418h-12.309
				c-1.877,0-3.396,1.518-3.396,3.396c0,1.874,1.52,3.393,3.396,3.393h12.309c1.873,0,3.395-1.519,3.395-3.393
				C287.516,155.936,285.994,154.418,284.121,154.418L284.121,154.418z M284.121,154.418"/>
			<path fill="#8DC254" stroke="#FFFFFF" stroke-width="1.785" stroke-miterlimit="10" d="M355.806,97.212h-8.688
				c-1.875,0-3.394,1.521-3.394,3.396c0,1.874,1.519,3.395,3.394,3.395h8.688c1.876,0,3.396-1.521,3.396-3.395
				C359.201,98.733,357.682,97.212,355.806,97.212L355.806,97.212z M355.806,97.212"/>
			<path fill="#8DC254" stroke="#FFFFFF" stroke-width="1.785" stroke-miterlimit="10" d="M355.806,113.143h-8.688
				c-1.875,0-3.394,1.52-3.394,3.396c0,1.875,1.519,3.396,3.394,3.396h8.688c1.876,0,3.396-1.521,3.396-3.396
				C359.201,114.665,357.682,113.143,355.806,113.143L355.806,113.143z M355.806,113.143"/>
			<path fill="#8DC254" stroke="#FFFFFF" stroke-width="1.785" stroke-miterlimit="10" d="M355.806,129.436h-8.688
				c-1.875,0-3.394,1.522-3.394,3.395c0,1.876,1.519,3.396,3.394,3.396h8.688c1.876,0,3.396-1.52,3.396-3.396
				C359.201,130.958,357.682,129.436,355.806,129.436L355.806,129.436z M355.806,129.436"/>
			<path fill="#8DC254" stroke="#FFFFFF" stroke-width="1.785" stroke-miterlimit="10" d="M355.806,146.091h-8.688
				c-1.875,0-3.394,1.52-3.394,3.396c0,1.874,1.519,3.394,3.394,3.394h8.688c1.876,0,3.396-1.52,3.396-3.394
				C359.201,147.611,357.682,146.091,355.806,146.091L355.806,146.091z M355.806,146.091"/>
		</g>
		<path fill="#8DC254" d="M302.051,18.041c-1.876,0-3.396,1.521-3.396,3.396v4.073c0,1.875,1.521,3.396,3.396,3.396
			c1.873,0,3.395-1.521,3.395-3.396v-4.073C305.445,19.561,303.924,18.041,302.051,18.041L302.051,18.041z M302.051,18.041"/>
	</g>
	<g>
		<path fill="#FFFFFF" stroke="#8DC254" stroke-width="4.4626" stroke-miterlimit="10" d="M183.348,177.157
			c2.429-6.751,5.274-29.816-24.347-43.713c-18.772-8.807-31.668-11.908-60.536-24.215c-1.208-0.516-3.849-1.224-4.534-0.675
			c-0.61,0.488-0.505,3.161-0.466,4.408c0.02,0.67,0.558,16.644,5.722,34.785c3.074,10.799,7.163,20.117,12.153,27.701
			c6.45,9.804,14.427,16.74,23.711,20.62c9.637,4.028,19.966,4.286,29.083,0.722C170.574,194.275,178.792,189.83,183.348,177.157z"
			/>
	</g>
	<g>
		<path fill="#FFFFFF" stroke="#8DC254" stroke-width="4.4626" stroke-miterlimit="10" d="M312.564,193.22
			c9.117,3.564,19.446,3.308,29.083-0.722c9.284-3.88,17.261-10.816,23.711-20.62c4.99-7.583,9.079-16.902,12.153-27.7
			c5.164-18.143,5.702-34.116,5.722-34.786c0.039-1.247,0.145-3.92-0.467-4.408c-0.685-0.548-3.325,0.159-4.534,0.676
			c-28.867,12.306-41.763,15.408-60.535,24.214c-29.621,13.897-26.775,36.962-24.348,43.714
			C297.906,186.259,306.123,190.706,312.564,193.22z"/>
	</g>
	<g>
		<path fill="#FFFFFF" stroke="#8DC254" stroke-width="4.4626" stroke-miterlimit="10" d="M367.359,195.283
			c8.059,5.557,18.172,7.674,28.476,5.962c9.925-1.65,19.279-6.575,27.804-14.642c6.596-6.238,12.711-14.371,18.177-24.178
			c9.185-16.477,13.368-31.902,13.54-32.55c0.324-1.205,1.039-3.782,0.557-4.396c-0.541-0.691-3.273-0.608-4.567-0.382
			c-30.92,5.363-44.184,5.428-64.474,9.699c-32.019,6.741-34.532,29.844-33.716,36.973
			C354.686,185.148,361.666,191.357,367.359,195.283z"/>
	</g>
	<g>
		<g>
			<g>
				<g>
					<path fill="#FFFFFF" stroke="#8DC254" stroke-width="4.4626" stroke-miterlimit="10" d="M203.751,147.592
						c-2.118,6.709-1.058,12.687-0.08,15.405c3.694,10.274,10.358,13.881,15.581,15.92c7.393,2.889,15.768,2.681,23.581-0.585
						c7.527-3.146,13.996-8.771,19.227-16.721c4.047-6.148,7.36-13.706,9.854-22.461c4.188-14.71,4.624-27.663,4.64-28.206
						c0.031-1.012,0.116-3.179-0.378-3.574c-0.557-0.444-2.697,0.129-3.677,0.547c-23.407,9.979-33.863,12.493-49.087,19.635
						c-0.691,0.324-1.361,0.655-2.01,0.992"/>
				</g>
				<g>
					<path fill="#FFFFFF" stroke="#8DC254" stroke-width="4.4626" stroke-miterlimit="10" d="M236.31,162.998
						c1.968-5.475,4.276-24.178-19.743-35.445c-15.221-7.142-25.678-9.655-49.085-19.635c-0.979-0.418-3.121-0.991-3.677-0.547
						c-0.496,0.396-0.41,2.562-0.378,3.574c0.016,0.543,0.452,13.496,4.64,28.206c2.492,8.755,5.809,16.312,9.854,22.461
						c5.232,7.949,11.699,13.574,19.227,16.721c7.814,3.266,16.19,3.474,23.582,0.585
						C225.951,176.878,232.615,173.272,236.31,162.998z"/>
				</g>
				<g>
					<path fill="none" stroke="#8DC254" stroke-width="4.4626" stroke-linecap="round" stroke-miterlimit="10" d="M203.751,147.592
						c-2.118,6.709-1.058,12.687-0.08,15.405c3.694,10.274,10.358,13.881,15.581,15.92c7.393,2.889,15.768,2.681,23.581-0.585
						c7.527-3.146,13.996-8.771,19.227-16.721c4.047-6.148,7.36-13.706,9.854-22.461c4.188-14.71,4.624-27.663,4.64-28.206
						c0.031-1.012,0.116-3.179-0.378-3.574c-0.557-0.444-2.697,0.129-3.677,0.547c-23.407,9.979-33.863,12.493-49.087,19.635
						c-0.691,0.324-1.361,0.655-2.01,0.992"/>
				</g>
			</g>
			<g>
				<path fill="none" stroke="#8DC254" stroke-width="4.4626" stroke-linecap="round" stroke-miterlimit="10" d="M222.975,129.932
					c0,0-30.54-19.256-4.679-66.902"/>
				<path fill="#FFFFFF" stroke="#8DC254" stroke-width="4.4626" stroke-linecap="round" stroke-miterlimit="10" d="M220.002,47.416
					l-1.688-1.36c-0.766-0.617-1.707-0.865-2.612-0.768c-0.908,0.097-1.776,0.54-2.392,1.305l-5.091,6.312
					c-2.597,3.222-3.782,7.259-3.341,11.373c0.441,4.113,2.457,7.807,5.678,10.405l3.511,2.83c3.222,2.596,7.259,3.784,11.372,3.342
					s7.809-2.458,10.402-5.678l5.092-6.313c0.592-0.734,0.869-1.674,0.769-2.614c-0.102-0.938-0.57-1.797-1.305-2.391l-1.688-1.361
					L220.002,47.416z"/>
			</g>
		</g>
		
			<line fill="#FFFFFF" stroke="#8DC254" stroke-width="5.3551" stroke-linecap="round" stroke-miterlimit="10" x1="223.032" y1="47.616" x2="230.572" y2="38.737"/>
		
			<line fill="#FFFFFF" stroke="#8DC254" stroke-width="5.3551" stroke-linecap="round" stroke-miterlimit="10" x1="236.865" y1="58.122" x2="244.272" y2="49.133"/>
	</g>
	<g>
		<path fill="#FFFFFF" stroke="#8DC254" stroke-width="4.4626" stroke-miterlimit="10" d="M111.366,172.662
			c0.817-7.129-1.696-30.231-33.716-36.973c-20.29-4.271-33.554-4.336-64.474-9.699c-1.293-0.227-4.026-0.31-4.567,0.382
			c-0.482,0.614,0.233,3.191,0.557,4.396c0.172,0.647,4.355,16.073,13.54,32.55c5.467,9.807,11.582,17.939,18.177,24.178
			c8.524,8.066,17.879,12.99,27.805,14.642c10.303,1.712,20.416-0.405,28.475-5.962C102.855,192.25,109.836,186.041,111.366,172.662
			z"/>
	</g>
	
		<line fill="none" stroke="#8DC254" stroke-width="4.4626" stroke-linecap="round" stroke-linejoin="round" stroke-miterlimit="10" x1="187.271" y1="24.616" x2="201.552" y2="38.896"/>
	
		<line fill="none" stroke="#8DC254" stroke-width="4.4626" stroke-linecap="round" stroke-linejoin="round" stroke-miterlimit="10" x1="171.738" y1="48.164" x2="191.379" y2="52.862"/>
	
		<line fill="none" stroke="#8DC254" stroke-width="4.4626" stroke-linecap="round" stroke-linejoin="round" stroke-miterlimit="10" x1="170.819" y1="76.358" x2="190.016" y2="70.087"/>
</g>
</svg>
