<?xml version="1.0" encoding="utf-8"?>
<!-- Generator: Adobe Illustrator 16.0.0, SVG Export Plug-In . SVG Version: 6.00 Build 0)  -->
<!DOCTYPE svg PUBLIC "-//W3C//DTD SVG 1.1//EN" "http://www.w3.org/Graphics/SVG/1.1/DTD/svg11.dtd">
<svg version="1.1" id="Layer_1" xmlns="http://www.w3.org/2000/svg" xmlns:xlink="http://www.w3.org/1999/xlink" x="0px" y="0px"
	 width="188px" height="215.5px" viewBox="0 0 188 215.5" enable-background="new 0 0 188 215.5" xml:space="preserve">
<g>
	<g>
		<path fill="#8DC254" d="M93.548,87.013c-8.797,0-16.62-2.89-22.623-8.357c-7.142-6.506-10.916-15.795-10.916-26.864
			c0-0.648,0.032-1.322,0.102-2.123c0.169-1.938,1.791-3.425,3.736-3.425h59.406c1.94,0,3.561,1.48,3.734,3.413
			c0.069,0.768,0.104,1.466,0.104,2.135c0,11.073-3.775,20.363-10.917,26.865C110.172,84.124,102.348,87.013,93.548,87.013z
			 M67.557,53.744c0.4,8.029,3.29,14.695,8.419,19.367c4.599,4.188,10.675,6.402,17.572,6.402c6.9,0,12.978-2.214,17.576-6.402
			c5.129-4.669,8.019-11.336,8.419-19.367H67.557z"/>
		<path fill="#8DC254" d="M129.3,118.919c-2.071,0-3.75-1.68-3.75-3.75v-10.78c0-5.817-5.012-10.55-11.172-10.55H72.724
			c-6.161,0-11.174,4.732-11.174,10.55v10.446c0,2.07-1.679,3.75-3.75,3.75s-3.75-1.68-3.75-3.75v-10.446
			c0-9.953,8.377-18.05,18.674-18.05h41.654c10.296,0,18.672,8.097,18.672,18.05v10.78
			C133.05,117.239,131.371,118.919,129.3,118.919z"/>
		<path fill="#8DC254" d="M115.208,100.535h-4.824c-2.029,0-3.678,1.645-3.678,3.675c0,2.029,1.648,3.676,3.678,3.676h4.824
			c2.029,0,3.676-1.646,3.676-3.676C118.884,102.179,117.237,100.535,115.208,100.535L115.208,100.535z M115.208,100.535"/>
		<path fill="#8DC254" d="M79.542,13.423"/>
		<path fill="#8DC254" d="M100.22,13.423"/>
		<path fill="#8DC254" d="M120.608,53.744H66.491c-7.033,0-12.756-5.723-12.756-12.756c0-4.108,1.95-7.889,5.196-10.271
			c0.875-4.654,2.642-9.016,5.265-12.986c5.18-7.838,13.066-13.239,22.206-15.21c0.244-0.053,0.494-0.081,0.744-0.084l12.713-0.155
			c0.251-0.008,0.497,0.019,0.743,0.065c9.378,1.774,17.789,7.382,23.078,15.384c2.724,4.114,4.573,8.827,5.394,13.717
			c2.713,2.408,4.29,5.862,4.29,9.54C133.364,48.021,127.642,53.744,120.608,53.744z M87.626,9.932
			c-7.061,1.616-13.147,5.844-17.172,11.934c-2.328,3.523-3.801,7.438-4.379,11.636c-0.166,1.208-0.908,2.26-1.991,2.819
			c-1.757,0.91-2.849,2.698-2.849,4.667c0,2.898,2.357,5.256,5.256,5.256h54.117c2.898,0,5.256-2.357,5.256-5.256
			c0-1.763-0.884-3.403-2.364-4.39c-0.911-0.607-1.512-1.582-1.644-2.67c-0.521-4.299-2.054-8.469-4.432-12.06
			c-4.112-6.223-10.605-10.609-17.86-12.082L87.626,9.932z"/>
		<g>
			<path fill="#8DC254" d="M80.37,9.509v13.324c0,2.029,1.645,3.678,3.674,3.678s3.676-1.648,3.676-3.678V9.509
				c0-2.029-1.646-3.676-3.676-3.676S80.37,7.48,80.37,9.509L80.37,9.509z M80.37,9.509"/>
			<path fill="#8DC254" d="M99.38,9.509v13.324c0,2.029,1.645,3.678,3.674,3.678s3.676-1.648,3.676-3.678V9.509
				c0-2.029-1.646-3.676-3.676-3.676S99.38,7.48,99.38,9.509L99.38,9.509z M99.38,9.509"/>
		</g>
	</g>
	<g>
		<g>
			<g>
				<path fill="#8DC254" d="M77.919,213.79c-0.002,0-0.002,0-0.002,0c-7.205,0-14.367-1.467-21.291-4.361
					c-12.422-5.191-23.059-14.414-31.611-27.412c-6.486-9.859-11.789-21.926-15.758-35.867c-6.639-23.326-7.303-43.75-7.328-44.608
					l-0.004-0.141c-0.129-4.043-0.047-7.043,2.186-8.828c0.979-0.783,2.234-1.181,3.729-1.181c2.307,0,5.117,0.938,6.279,1.435
					c17.307,7.378,29.98,12.091,41.162,16.25c12.039,4.476,22.436,8.343,34.791,14.14c36.736,17.234,37.447,46.809,32.689,60.041
					c-6.211,17.277-17.436,23.566-26.521,27.115C90.435,212.64,84.271,213.79,77.919,213.79z M10.419,100.517
					c0.004,0.194,0.01,0.399,0.016,0.613l0.006,0.155c0.023,0.823,0.654,20.217,7.006,42.534
					c3.73,13.105,8.672,24.383,14.682,33.518c7.604,11.557,16.951,19.711,27.781,24.236c5.879,2.457,11.938,3.703,18.008,3.703
					h0.002c5.287,0,10.408-0.955,15.223-2.836c7.867-3.072,16.586-8.096,21.607-22.064c0.455-1.264,10.682-31.168-28.293-49.451
					c-12.039-5.648-22.281-9.457-34.145-13.869c-11.27-4.189-24.043-8.94-41.533-16.397
					C10.665,100.611,10.544,100.563,10.419,100.517z"/>
			</g>
		</g>
		<g>
			<path fill="#8DC254" d="M109.183,213.792c-6.285,0-12.482-1.139-18.324-3.422c-9.084-3.547-20.309-9.836-26.52-27.113
				c-2.137-5.945-3.24-16.033,0.07-26.518c0.707-2.242,3.1-3.486,5.342-2.777s3.484,3.1,2.777,5.342
				c-3.523,11.158-0.531,20.09-0.178,21.072c5.021,13.969,13.74,18.992,21.607,22.064c10.383,4.057,22.184,3.75,33.232-0.867
				c10.83-4.527,20.178-12.68,27.781-24.236c6.008-9.131,10.947-20.408,14.682-33.52c6.352-22.316,6.982-41.708,7.006-42.523
				l0.006-0.164c0.006-0.214,0.012-0.418,0.016-0.613c-0.125,0.046-0.246,0.093-0.357,0.142
				c-17.494,7.457-30.268,12.208-41.537,16.399c-11.861,4.41-22.104,8.219-34.141,13.867c-1.006,0.469-1.998,0.959-2.951,1.455
				c-2.09,1.086-4.658,0.27-5.742-1.814c-1.082-2.088-0.27-4.658,1.816-5.74c1.057-0.551,2.154-1.092,3.262-1.611
				c12.354-5.795,22.75-9.66,34.789-14.138c11.182-4.158,23.855-8.871,41.162-16.25c2.023-0.863,7.053-2.617,10.008-0.254
				c2.232,1.785,2.314,4.785,2.186,8.828l-0.006,0.15c-0.023,0.849-0.688,21.272-7.326,44.598
				c-3.973,13.945-9.273,26.014-15.758,35.867c-8.553,12.998-19.189,22.221-31.611,27.412
				C123.522,212.333,116.296,213.792,109.183,213.792z"/>
		</g>
	</g>
</g>
</svg>
