<?xml version="1.0" encoding="utf-8"?>
<!-- Generator: Adobe Illustrator 16.0.0, SVG Export Plug-In . SVG Version: 6.00 Build 0)  -->
<!DOCTYPE svg PUBLIC "-//W3C//DTD SVG 1.1//EN" "http://www.w3.org/Graphics/SVG/1.1/DTD/svg11.dtd">
<svg version="1.1" id="Layer_1" xmlns="http://www.w3.org/2000/svg" xmlns:xlink="http://www.w3.org/1999/xlink" x="0px" y="0px"
	 width="188px" height="215.5px" viewBox="0 0 188 215.5" enable-background="new 0 0 188 215.5" xml:space="preserve">
<g>
	<g>
		<g>
			<path fill="#8DC254" d="M33.416,103V55.732l-4.376,3.142c-0.747,0.538-1.631,0.823-2.556,0.823c-1.413,0-2.746-0.684-3.567-1.828
				c-0.684-0.953-0.955-2.113-0.766-3.271c0.19-1.157,0.819-2.171,1.771-2.854L90.874,2.71c1.512-1.11,3.676-1.112,5.191,0.001
				l66.961,49.041c1.954,1.403,2.405,4.15,0.996,6.115c-0.822,1.146-2.156,1.83-3.569,1.83c-0.926,0-1.811-0.285-2.558-0.824
				l-4.372-3.14v48.517l-58.014,26L33.416,103z M144.746,106V49.354l-51.277-37.66l-51.276,37.66v56.521L94.26,128.75L144.746,106z"
				/>
		</g>
		<g>
			<g>
				<path fill="#8DC254" d="M71.071,58.312v6.361c0,2.826,2.292,5.119,5.119,5.119s5.119-2.293,5.119-5.119v-6.361
					c0-2.827-2.292-5.119-5.119-5.119S71.071,55.485,71.071,58.312L71.071,58.312z M71.071,58.312"/>
				<path fill="#8DC254" d="M76.19,82.723c-2.827,0-5.119,2.292-5.119,5.119v2.047c0,2.83,2.292,5.119,5.119,5.119
					s5.119-2.289,5.119-5.119v-2.047C81.31,85.015,79.018,82.723,76.19,82.723L76.19,82.723z M76.19,82.723"/>
			</g>
			<g>
				<path fill="#8DC254" d="M105.628,58.312v6.361c0,2.826,2.293,5.119,5.119,5.119c2.827,0,5.12-2.293,5.12-5.119v-6.361
					c0-2.827-2.293-5.119-5.12-5.119C107.921,53.193,105.628,55.485,105.628,58.312L105.628,58.312z M105.628,58.312"/>
				<path fill="#8DC254" d="M110.747,82.723c-2.826,0-5.119,2.292-5.119,5.119v2.047c0,2.83,2.293,5.119,5.119,5.119
					c2.827,0,5.12-2.289,5.12-5.119v-2.047C115.867,85.015,113.574,82.723,110.747,82.723L110.747,82.723z M110.747,82.723"/>
			</g>
		</g>
	</g>
	<g>
		<g>
			<path fill="#8DC254" d="M77.837,213.79L77.837,213.79c-7.206-0.001-14.369-1.468-21.292-4.362
				c-12.423-5.19-23.059-14.414-31.61-27.412c-6.486-9.856-11.788-21.924-15.759-35.866c-6.64-23.33-7.303-43.75-7.328-44.608
				L1.844,101.4c-0.129-4.044-0.047-7.045,2.188-8.83c0.977-0.781,2.231-1.179,3.727-1.179c2.306,0,5.115,0.938,6.278,1.435
				c17.306,7.378,29.979,12.091,41.161,16.249c12.039,4.477,22.436,8.343,34.792,14.14c36.735,17.234,37.446,46.81,32.689,60.041
				c-6.212,17.277-17.436,23.566-26.521,27.115C90.354,212.64,84.188,213.79,77.837,213.79z M10.337,100.517
				c0.004,0.195,0.01,0.399,0.017,0.614l0.005,0.154c0.024,0.823,0.654,20.213,7.007,42.533
				c3.732,13.108,8.673,24.385,14.683,33.518c7.603,11.557,16.949,19.71,27.78,24.236c5.878,2.457,11.937,3.703,18.008,3.703h0.002
				c5.286,0,10.408-0.954,15.223-2.835c7.867-3.073,16.585-8.098,21.607-22.065c0.454-1.264,10.681-31.167-28.294-49.451
				c-12.038-5.647-22.281-9.457-34.144-13.868c-11.27-4.19-24.043-8.94-41.534-16.397C10.584,100.61,10.463,100.562,10.337,100.517z
				"/>
		</g>
	</g>
	<g>
		<path fill="#8DC254" d="M109.103,213.791c-6.287,0.001-12.482-1.138-18.325-3.421c-9.083-3.548-20.308-9.836-26.52-27.114
			c-2.138-5.942-3.241-16.029,0.069-26.516c0.708-2.242,3.104-3.487,5.341-2.778c2.242,0.708,3.486,3.099,2.778,5.341
			c-3.523,11.161-0.529,20.091-0.177,21.072c5.022,13.969,13.74,18.993,21.606,22.064c10.386,4.06,22.187,3.752,33.233-0.867
			c10.829-4.525,20.176-12.68,27.78-24.236c6.01-9.133,10.95-20.409,14.683-33.519c6.377-22.404,7-42.32,7.005-42.519l0.005-0.154
			c0.008-0.219,0.014-0.428,0.019-0.628c-0.127,0.046-0.247,0.093-0.358,0.142c-17.492,7.457-30.266,12.207-41.535,16.397
			c-11.862,4.411-22.105,8.221-34.143,13.868c-1.011,0.473-2.004,0.963-2.952,1.455c-2.089,1.086-4.657,0.271-5.741-1.814
			c-1.083-2.087-0.271-4.657,1.815-5.74c1.052-0.547,2.149-1.088,3.264-1.61c12.354-5.796,22.75-9.662,34.789-14.139
			c11.182-4.158,23.855-8.871,41.162-16.249c2.023-0.863,7.052-2.617,10.008-0.252c2.234,1.785,2.314,4.793,2.184,8.845
			l-0.005,0.134c-0.023,0.838-0.66,21.175-7.326,44.596c-3.971,13.944-9.272,26.011-15.759,35.867
			c-8.554,12.999-19.188,22.222-31.61,27.412C123.441,212.334,116.215,213.791,109.103,213.791z"/>
	</g>
</g>
</svg>
