<?xml version="1.0" encoding="utf-8"?>
<!-- Generator: Adobe Illustrator 16.0.0, SVG Export Plug-In . SVG Version: 6.00 Build 0)  -->
<!DOCTYPE svg PUBLIC "-//W3C//DTD SVG 1.1//EN" "http://www.w3.org/Graphics/SVG/1.1/DTD/svg11.dtd">
<svg version="1.1" id="Layer_1" xmlns="http://www.w3.org/2000/svg" xmlns:xlink="http://www.w3.org/1999/xlink" x="0px" y="0px"
	 width="188px" height="220px" viewBox="0 0 188 220" enable-background="new 0 0 188 220" xml:space="preserve">
<g>
	<g>
		<g>
			<path fill="#8DC254" d="M160.983,17.626H127.04c-1.781,0-3.226,1.443-3.226,3.225v59.36H101.69V5.377
				c0-1.782-1.443-3.226-3.225-3.226H79.067c-1.779,0-3.223,1.443-3.223,3.226v45.261h-7.126V32.785c0-1.78-1.445-3.224-3.225-3.224
				c-1.78,0-3.226,1.443-3.226,3.224v17.853h-3.487c-1.782,0-3.225,1.443-3.225,3.224v15.688H39.052V57.615
				c0-1.78-1.445-3.226-3.225-3.226c-1.78,0-3.226,1.445-3.226,3.226v11.936h-6.488c-1.782,0-3.225,1.442-3.225,3.224v34.338
				c0,1.779,1.442,3.223,3.225,3.223l70.247,23.666l64.623-23.666c1.779,0,3.225-1.443,3.225-3.223V20.851
				C164.208,19.069,162.763,17.626,160.983,17.626L160.983,17.626z M55.557,118.579l-26.218-10.578V75.999h26.218V118.579z
				 M95.241,131.912l-33.236-10.578V57.086h33.236V131.912z M95.241,50.638H82.294V8.602h12.947V50.638z M123.812,121.668
				l-22.121,10.244V86.659h22.121V121.668z M157.758,110.001l-27.492,7.911V24.075h27.492V110.001z"/>
			<path fill="#8DC254" d="M71.504,65.079c-1.782,0-3.226,1.443-3.226,3.226v4.281c0,1.78,1.443,3.225,3.226,3.225
				c1.78,0,3.225-1.444,3.225-3.225v-4.281C74.729,66.522,73.284,65.079,71.504,65.079L71.504,65.079z M71.504,65.079"/>
			<path fill="#8DC254" d="M85.259,65.079c-1.781,0-3.225,1.443-3.225,3.226v4.281c0,1.78,1.443,3.225,3.225,3.225
				c1.779,0,3.223-1.444,3.223-3.225v-4.281C88.481,66.522,87.038,65.079,85.259,65.079L85.259,65.079z M85.259,65.079"/>
			<path fill="#8DC254" d="M88.697,35.507c-1.782,0-3.226,1.443-3.226,3.225v4.281c0,1.781,1.443,3.225,3.226,3.225
				c1.779,0,3.224-1.443,3.224-3.225v-4.281C91.921,36.95,90.479,35.507,88.697,35.507L88.697,35.507z M88.697,35.507"/>
			<path fill="#8DC254" d="M88.697,18.657c-1.782,0-3.226,1.444-3.226,3.227v4.28c0,1.781,1.443,3.225,3.226,3.225
				c1.779,0,3.224-1.443,3.224-3.225v-4.28C91.921,20.102,90.479,18.657,88.697,18.657L88.697,18.657z M88.697,18.657"/>
			<path fill="#8DC254" d="M71.504,83.854c-1.782,0-3.226,1.444-3.226,3.225v4.28c0,1.783,1.443,3.226,3.226,3.226
				c1.78,0,3.225-1.442,3.225-3.226v-4.28C74.729,85.298,73.284,83.854,71.504,83.854L71.504,83.854z M71.504,83.854"/>
			<path fill="#8DC254" d="M85.259,83.854c-1.781,0-3.225,1.444-3.225,3.225v4.28c0,1.783,1.443,3.226,3.225,3.226
				c1.779,0,3.223-1.442,3.223-3.226v-4.28C88.481,85.298,87.038,83.854,85.259,83.854L85.259,83.854z M85.259,83.854"/>
			<path fill="#8DC254" d="M71.504,101.31c-1.782,0-3.226,1.443-3.226,3.225v4.28c0,1.782,1.443,3.226,3.226,3.226
				c1.78,0,3.225-1.443,3.225-3.226v-4.28C74.729,102.753,73.284,101.31,71.504,101.31L71.504,101.31z M71.504,101.31"/>
			<path fill="#8DC254" d="M85.259,101.31c-1.781,0-3.225,1.443-3.225,3.225v4.28c0,1.782,1.443,3.226,3.225,3.226
				c1.779,0,3.223-1.443,3.223-3.226v-4.28C88.481,102.753,87.038,101.31,85.259,101.31L85.259,101.31z M85.259,101.31"/>
			<path fill="#8DC254" d="M85.259,120.083c-1.781,0-3.225,1.443-3.225,3.223v4.283c0,1.781,1.443,3.225,3.225,3.225
				c1.779,0,3.223-1.443,3.223-3.225v-4.283C88.481,121.526,87.038,120.083,85.259,120.083L85.259,120.083z M85.259,120.083"/>
			<path fill="#8DC254" d="M138.558,65.079c-1.781,0-3.225,1.443-3.225,3.226v4.281c0,1.78,1.443,3.225,3.225,3.225
				c1.78,0,3.225-1.444,3.225-3.225v-4.281C141.782,66.522,140.338,65.079,138.558,65.079L138.558,65.079z M138.558,65.079"/>
			<path fill="#8DC254" d="M150.594,65.079c-1.782,0-3.226,1.443-3.226,3.226v4.281c0,1.78,1.443,3.225,3.226,3.225
				c1.78,0,3.225-1.444,3.225-3.225v-4.281C153.818,66.522,152.374,65.079,150.594,65.079L150.594,65.079z M150.594,65.079"/>
			<path fill="#8DC254" d="M138.558,83.854c-1.781,0-3.225,1.444-3.225,3.225v4.28c0,1.783,1.443,3.226,3.225,3.226
				c1.78,0,3.225-1.442,3.225-3.226v-4.28C141.782,85.298,140.338,83.854,138.558,83.854L138.558,83.854z M138.558,83.854"/>
			<path fill="#8DC254" d="M150.594,83.854c-1.782,0-3.226,1.444-3.226,3.225v4.28c0,1.783,1.443,3.226,3.226,3.226
				c1.78,0,3.225-1.442,3.225-3.226v-4.28C153.818,85.298,152.374,83.854,150.594,83.854L150.594,83.854z M150.594,83.854"/>
			<path fill="#8DC254" d="M138.558,101.31c-1.781,0-3.225,1.443-3.225,3.225v4.28c0,1.782,1.443,3.226,3.225,3.226
				c1.78,0,3.225-1.443,3.225-3.226v-4.28C141.782,102.753,140.338,101.31,138.558,101.31L138.558,101.31z M138.558,101.31"/>
			<path fill="#8DC254" d="M150.594,101.31c-1.782,0-3.226,1.443-3.226,3.225v4.28c0,1.782,1.443,3.226,3.226,3.226
				c1.78,0,3.225-1.443,3.225-3.226v-4.28C153.818,102.753,152.374,101.31,150.594,101.31L150.594,101.31z M150.594,101.31"/>
			<path fill="#8DC254" d="M138.558,29.244c-1.781,0-3.225,1.442-3.225,3.225v4.28c0,1.782,1.443,3.225,3.225,3.225
				c1.78,0,3.225-1.442,3.225-3.225v-4.28C141.782,30.687,140.338,29.244,138.558,29.244L138.558,29.244z M138.558,29.244"/>
			<path fill="#8DC254" d="M150.594,29.244c-1.782,0-3.226,1.442-3.226,3.225v4.28c0,1.782,1.443,3.225,3.226,3.225
				c1.78,0,3.225-1.442,3.225-3.225v-4.28C153.818,30.687,152.374,29.244,150.594,29.244L150.594,29.244z M150.594,29.244"/>
			<path fill="#8DC254" d="M138.558,46.7c-1.781,0-3.225,1.442-3.225,3.225v4.281c0,1.781,1.443,3.225,3.225,3.225
				c1.78,0,3.225-1.443,3.225-3.225v-4.281C141.782,48.143,140.338,46.7,138.558,46.7L138.558,46.7z M138.558,46.7"/>
			<path fill="#8DC254" d="M150.594,46.7c-1.782,0-3.226,1.442-3.226,3.225v4.281c0,1.781,1.443,3.225,3.226,3.225
				c1.78,0,3.225-1.443,3.225-3.225v-4.281C153.818,48.143,152.374,46.7,150.594,46.7L150.594,46.7z M150.594,46.7"/>
			<path fill="#8DC254" d="M48.464,82.272h-11.69c-1.78,0-3.226,1.443-3.226,3.225s1.445,3.226,3.226,3.226h11.69
				c1.781,0,3.226-1.444,3.226-3.226S50.245,82.272,48.464,82.272L48.464,82.272z M48.464,82.272"/>
			<path fill="#8DC254" d="M48.464,94.767h-11.69c-1.78,0-3.226,1.443-3.226,3.224c0,1.782,1.445,3.225,3.226,3.225h11.69
				c1.781,0,3.226-1.442,3.226-3.225C51.689,96.21,50.245,94.767,48.464,94.767L48.464,94.767z M48.464,94.767"/>
			<path fill="#8DC254" d="M48.464,107.661h-11.69c-1.78,0-3.226,1.445-3.226,3.226c0,1.781,1.445,3.226,3.226,3.226h11.69
				c1.781,0,3.226-1.444,3.226-3.226C51.689,109.106,50.245,107.661,48.464,107.661L48.464,107.661z M48.464,107.661"/>
			<path fill="#8DC254" d="M116.55,91.214h-8.253c-1.78,0-3.223,1.443-3.223,3.225s1.442,3.225,3.223,3.225h8.253
				c1.781,0,3.225-1.443,3.225-3.225S118.331,91.214,116.55,91.214L116.55,91.214z M116.55,91.214"/>
			<path fill="#8DC254" d="M116.55,106.343h-8.253c-1.78,0-3.223,1.444-3.223,3.226s1.442,3.226,3.223,3.226h8.253
				c1.781,0,3.225-1.444,3.225-3.226C119.774,107.788,118.331,106.343,116.55,106.343L116.55,106.343z M116.55,106.343"/>
			<path fill="#8DC254" d="M116.55,121.818"/>
			<path fill="#8DC254" d="M65.494,16.019c-1.782,0-3.226,1.443-3.226,3.225v3.869c0,1.781,1.443,3.225,3.226,3.225
				c1.779,0,3.225-1.443,3.225-3.225v-3.869C68.719,17.462,67.273,16.019,65.494,16.019L65.494,16.019z M65.494,16.019"/>
		</g>
		<g>
			<g>
				<g>
					<path fill="#8DC254" d="M77.917,218.291c0,0-0.001,0-0.002,0c-7.204-0.001-14.367-1.468-21.291-4.362
						c-12.423-5.191-23.058-14.414-31.609-27.412c-6.485-9.855-11.788-21.922-15.76-35.866c-6.639-23.33-7.302-43.751-7.327-44.608
						l-0.004-0.141c-0.129-4.043-0.047-7.043,2.186-8.828c0.979-0.783,2.234-1.181,3.729-1.181c2.306,0,5.115,0.938,6.278,1.435
						c17.306,7.378,29.979,12.091,41.161,16.249c12.039,4.477,22.436,8.343,34.792,14.14c36.735,17.234,37.446,46.81,32.689,60.041
						c-6.212,17.277-17.436,23.566-26.521,27.115C90.434,217.141,84.269,218.291,77.917,218.291z M10.417,105.018
						c0.004,0.194,0.01,0.399,0.017,0.613l0.005,0.155c0.024,0.823,0.654,20.213,7.006,42.533
						c3.733,13.108,8.674,24.386,14.684,33.518c7.603,11.556,16.949,19.71,27.779,24.236c5.879,2.457,11.938,3.703,18.009,3.703
						h0.001c5.287,0,10.409-0.954,15.224-2.835c7.867-3.073,16.585-8.098,21.607-22.065c0.454-1.264,10.681-31.167-28.294-49.451
						c-12.038-5.647-22.281-9.457-34.144-13.868c-11.27-4.19-24.043-8.94-41.534-16.397
						C10.664,105.111,10.543,105.063,10.417,105.018z"/>
				</g>
			</g>
			<g>
				<path fill="#8DC254" d="M109.182,218.292c-6.286,0-12.482-1.138-18.324-3.421c-9.084-3.548-20.309-9.836-26.521-27.114
					c-2.137-5.945-3.24-16.032,0.07-26.517c0.708-2.242,3.101-3.486,5.342-2.777c2.242,0.708,3.485,3.1,2.777,5.342
					c-3.523,11.157-0.53,20.09-0.178,21.072c5.022,13.968,13.741,18.991,21.607,22.063c10.383,4.058,22.186,3.75,33.233-0.867
					c10.83-4.526,20.177-12.68,27.78-24.236c6.01-9.133,10.95-20.409,14.683-33.519c6.377-22.404,7-42.32,7.005-42.519l0.006-0.169
					c0.007-0.214,0.013-0.418,0.017-0.613c-0.126,0.046-0.246,0.093-0.358,0.142c-17.493,7.457-30.267,12.207-41.536,16.398
					c-11.861,4.41-22.104,8.22-34.142,13.867c-1.005,0.47-1.997,0.96-2.951,1.455c-2.089,1.086-4.656,0.271-5.741-1.814
					c-1.083-2.087-0.271-4.657,1.815-5.74c1.058-0.55,2.155-1.092,3.263-1.61c12.354-5.795,22.75-9.661,34.788-14.138
					c11.182-4.158,23.855-8.871,41.163-16.25c2.022-0.863,7.052-2.617,10.007-0.254c2.232,1.785,2.314,4.785,2.186,8.828
					l-0.005,0.15c-0.023,0.84-0.66,21.177-7.326,44.598c-3.971,13.944-9.272,26.011-15.759,35.867
					c-8.553,12.998-19.188,22.222-31.61,27.412C123.521,216.834,116.294,218.292,109.182,218.292z"/>
			</g>
		</g>
	</g>
</g>
</svg>
