<?xml version="1.0" encoding="utf-8"?>
<!-- Generator: Adobe Illustrator 16.0.0, SVG Export Plug-In . SVG Version: 6.00 Build 0)  -->
<!DOCTYPE svg PUBLIC "-//W3C//DTD SVG 1.1//EN" "http://www.w3.org/Graphics/SVG/1.1/DTD/svg11.dtd">
<svg version="1.1" id="Layer_1" xmlns="http://www.w3.org/2000/svg" xmlns:xlink="http://www.w3.org/1999/xlink" x="0px" y="0px"
	 width="1000px" height="433.664px" viewBox="0 0 1000 433.664" enable-background="new 0 0 1000 433.664" xml:space="preserve">
<line fill="none" stroke="#BBBDBF" x1="2.5" y1="3.664" x2="730.5" y2="3.664"/>
<line fill="none" stroke="#BBBDBF" x1="60.167" y1="86.833" x2="162.5" y2="86.833"/>
<line fill="none" stroke="#BBBDBF" x1="375.5" y1="198.833" x2="487" y2="198.833"/>
<line fill="none" stroke="#BBBDBF" x1="486.5" y1="432.664" x2="486.5" y2="3.164"/>
<line fill="none" stroke="#BBBDBF" x1="376" y1="432.664" x2="376" y2="3.164"/>
<polyline fill="none" stroke="#BBBDBF" points="58.833,433.664 58.833,4.164 163.5,86.333 "/>
<polyline fill="none" stroke="#BBBDBF" points="163,433.664 163,4.164 60.167,86.333 "/>
<line fill="none" stroke="#231F20" stroke-width="8" x1="486" y1="4.164" x2="778.167" y2="4.164"/>
<line fill="none" stroke="#231F20" stroke-width="8" x1="892.832" y1="3.664" x2="1000.168" y2="3.664"/>
<line fill="none" stroke="#231F20" stroke-width="8" x1="4.5" y1="432.663" x2="4.5" y2="3.164"/>
<line fill="none" stroke="#231F20" stroke-width="8" x1="-40.5" y1="-64.587" x2="-40.5" y2="-176.086"/>
<g>
	<defs>
		<rect id="SVGID_1_" x="-69.45" y="-1095.46" width="1299.33" height="3267.586"/>
	</defs>
	<clipPath id="SVGID_2_">
		<use xlink:href="#SVGID_1_"  overflow="visible"/>
	</clipPath>
	<path clip-path="url(#SVGID_2_)" fill="none" stroke="#BBBDBF" stroke-width="0.904" d="M872.669-236.783v110.288h112.096
		C984.765-126.495,979.341-236.783,872.669-236.783z"/>
</g>
<g>
	<defs>
		<rect id="SVGID_3_" x="-336.099" y="-1050.77" width="1299.33" height="3267.587"/>
	</defs>
	<clipPath id="SVGID_4_">
		<use xlink:href="#SVGID_3_"  overflow="visible"/>
	</clipPath>
	<path clip-path="url(#SVGID_4_)" fill="none" stroke="#BBBDBF" stroke-width="0.904" d="M606.021-192.092v110.288h112.096
		C718.116-81.804,712.692-192.092,606.021-192.092z"/>
</g>
<rect y="-104.167" fill="none" stroke="#BBBDBF" width="1000" height="28"/>
<g>
</g>
<g>
</g>
<g>
</g>
<g>
</g>
<g>
</g>
<g>
</g>
<g>
</g>
<g>
</g>
<g>
</g>
<g>
</g>
<g>
</g>
<g>
</g>
<g>
</g>
<g>
</g>
<g>
</g>
</svg>
