<?xml version="1.0" encoding="utf-8"?>
<!-- Generator: Adobe Illustrator 16.0.0, SVG Export Plug-In . SVG Version: 6.00 Build 0)  -->
<!DOCTYPE svg PUBLIC "-//W3C//DTD SVG 1.1//EN" "http://www.w3.org/Graphics/SVG/1.1/DTD/svg11.dtd">
<svg version="1.1" id="Layer_1" xmlns="http://www.w3.org/2000/svg" xmlns:xlink="http://www.w3.org/1999/xlink" x="0px" y="0px"
	 width="160px" height="248px" viewBox="0 0 160 248" enable-background="new 0 0 160 248" xml:space="preserve">
<g>
	<path fill="#231F20" d="M-89.403-270.419h18.816v3.784h-14.307v11.611h13.218v3.732h-13.218v15.81h-4.509V-270.419z"/>
	<path fill="#231F20" d="M-65.61-252.744c0-2.955-0.052-5.495-0.207-7.827h3.991l0.155,4.924h0.208
		c1.14-3.369,3.888-5.494,6.946-5.494c0.518,0,0.881,0.052,1.296,0.155v4.302c-0.467-0.104-0.933-0.155-1.555-0.155
		c-3.214,0-5.495,2.436-6.116,5.857c-0.104,0.622-0.208,1.348-0.208,2.125v13.373h-4.51V-252.744z"/>
	<path fill="#231F20" d="M-35.028-235.483l-0.363-3.162h-0.155c-1.399,1.97-4.095,3.732-7.671,3.732
		c-5.08,0-7.672-3.577-7.672-7.205c0-6.064,5.391-9.382,15.084-9.33v-0.519c0-2.073-0.57-5.805-5.702-5.805
		c-2.333,0-4.769,0.726-6.531,1.866l-1.037-3.006c2.073-1.348,5.08-2.229,8.242-2.229c7.671,0,9.538,5.235,9.538,10.263v9.382
		c0,2.177,0.104,4.302,0.415,6.013H-35.028z M-35.702-248.287c-4.976-0.104-10.626,0.778-10.626,5.65
		c0,2.955,1.97,4.354,4.302,4.354c3.266,0,5.339-2.074,6.064-4.199c0.156-0.466,0.259-0.985,0.259-1.451V-248.287z"/>
	<path fill="#231F20" d="M-24.556-240.148c1.348,0.881,3.732,1.814,6.013,1.814c3.317,0,4.872-1.659,4.872-3.732
		c0-2.177-1.296-3.369-4.665-4.613c-4.509-1.607-6.635-4.095-6.635-7.101c0-4.043,3.266-7.36,8.656-7.36
		c2.54,0,4.769,0.726,6.168,1.555l-1.14,3.317c-0.985-0.622-2.799-1.451-5.132-1.451c-2.695,0-4.199,1.555-4.199,3.421
		c0,2.074,1.503,3.006,4.769,4.25c4.354,1.659,6.583,3.836,6.583,7.568c0,4.406-3.421,7.516-9.382,7.516
		c-2.747,0-5.287-0.674-7.049-1.711L-24.556-240.148z"/>
	<path fill="#231F20" d="M-0.867-247.198c0.104,6.168,4.043,8.708,8.604,8.708c3.266,0,5.235-0.57,6.946-1.296l0.777,3.266
		c-1.607,0.726-4.354,1.555-8.345,1.555c-7.723,0-12.336-5.08-12.336-12.648c0-7.567,4.458-13.528,11.766-13.528
		c8.19,0,10.367,7.205,10.367,11.818c0,0.933-0.104,1.659-0.156,2.125H-0.867z M12.506-250.463c0.052-2.903-1.192-7.413-6.324-7.413
		c-4.613,0-6.635,4.25-6.998,7.413H12.506z"/>
	<path fill="#231F20" d="M38.631-267.621c0.052,1.555-1.089,2.799-2.903,2.799c-1.607,0-2.747-1.244-2.747-2.799
		c0-1.607,1.192-2.851,2.851-2.851C37.542-270.471,38.631-269.228,38.631-267.621z M33.551-235.483v-25.088h4.562v25.088H33.551z"/>
	<path fill="#231F20" d="M45.681-253.781c0-2.592-0.052-4.717-0.207-6.791h4.043l0.259,4.147h0.104
		c1.244-2.384,4.147-4.717,8.293-4.717c3.473,0,8.864,2.073,8.864,10.678v14.98h-4.562v-14.462c0-4.043-1.503-7.412-5.805-7.412
		c-3.007,0-5.339,2.125-6.117,4.665c-0.208,0.57-0.311,1.348-0.311,2.125v15.083h-4.562V-253.781z"/>
	<path fill="#231F20" d="M79.53-267.621c0.052,1.555-1.089,2.799-2.903,2.799c-1.607,0-2.747-1.244-2.747-2.799
		c0-1.607,1.192-2.851,2.851-2.851C78.441-270.471,79.53-269.228,79.53-267.621z M74.45-235.483v-25.088h4.562v25.088H74.45z"/>
	<path fill="#231F20" d="M104.462-236.417c-1.192,0.622-3.835,1.452-7.205,1.452c-7.568,0-12.492-5.132-12.492-12.803
		c0-7.723,5.287-13.321,13.477-13.321c2.695,0,5.08,0.674,6.324,1.296l-1.037,3.524c-1.089-0.622-2.799-1.192-5.287-1.192
		c-5.754,0-8.864,4.25-8.864,9.485c0,5.806,3.732,9.382,8.708,9.382c2.592,0,4.302-0.674,5.598-1.244L104.462-236.417z"/>
	<path fill="#231F20" d="M114.882-267.621c0.052,1.555-1.089,2.799-2.903,2.799c-1.607,0-2.747-1.244-2.747-2.799
		c0-1.607,1.192-2.851,2.851-2.851C113.793-270.471,114.882-269.228,114.882-267.621z M109.802-235.483v-25.088h4.562v25.088
		H109.802z"/>
	<path fill="#231F20" d="M135.823-235.483l-0.363-3.162h-0.155c-1.4,1.97-4.095,3.732-7.671,3.732c-5.08,0-7.672-3.577-7.672-7.205
		c0-6.064,5.391-9.382,15.084-9.33v-0.519c0-2.073-0.57-5.805-5.702-5.805c-2.333,0-4.769,0.726-6.531,1.866l-1.037-3.006
		c2.073-1.348,5.08-2.229,8.242-2.229c7.671,0,9.538,5.235,9.538,10.263v9.382c0,2.177,0.104,4.302,0.415,6.013H135.823z
		 M135.149-248.287c-4.976-0.104-10.626,0.778-10.626,5.65c0,2.955,1.97,4.354,4.302,4.354c3.266,0,5.339-2.074,6.064-4.199
		c0.156-0.466,0.259-0.985,0.259-1.451V-248.287z"/>
	<path fill="#231F20" d="M146.917-272.286h4.562v36.802h-4.562V-272.286z"/>
	<path fill="#231F20" d="M155.677-229.108c1.141-3.058,2.54-8.604,3.11-12.388l5.08-0.519c-1.192,4.406-3.473,10.16-4.924,12.596
		L155.677-229.108z"/>
	<path fill="#231F20" d="M180.35-252.381c0-3.214-0.104-5.805-0.207-8.19h4.095l0.208,4.302h0.104
		c1.866-3.058,4.821-4.872,8.916-4.872c6.064,0,10.626,5.131,10.626,12.751c0,9.019-5.495,13.477-11.403,13.477
		c-3.317,0-6.22-1.452-7.724-3.939h-0.104v13.632h-4.51V-252.381z M184.859-245.695c0,0.674,0.104,1.296,0.208,1.866
		c0.829,3.162,3.576,5.339,6.842,5.339c4.821,0,7.62-3.939,7.62-9.693c0-5.028-2.644-9.33-7.464-9.33
		c-3.11,0-6.013,2.229-6.894,5.65c-0.156,0.57-0.311,1.244-0.311,1.866V-245.695z"/>
	<path fill="#231F20" d="M232.547-248.234c0,9.278-6.428,13.321-12.492,13.321c-6.79,0-12.025-4.976-12.025-12.907
		c0-8.397,5.495-13.321,12.44-13.321C227.675-261.141,232.547-255.906,232.547-248.234z M212.643-247.976
		c0,5.495,3.162,9.641,7.62,9.641c4.354,0,7.62-4.095,7.62-9.745c0-4.25-2.125-9.641-7.516-9.641S212.643-252.744,212.643-247.976z"
		/>
	<path fill="#231F20" d="M243.796-267.776v7.205h6.531v3.473h-6.531v13.529c0,3.11,0.881,4.872,3.421,4.872
		c1.192,0,2.074-0.155,2.644-0.311l0.208,3.421c-0.881,0.363-2.281,0.622-4.043,0.622c-2.125,0-3.836-0.674-4.924-1.918
		c-1.296-1.348-1.762-3.577-1.762-6.531v-13.684h-3.888v-3.473h3.888v-6.013L243.796-267.776z"/>
	<path fill="#231F20" d="M257.74-247.198c0.104,6.168,4.043,8.708,8.604,8.708c3.266,0,5.235-0.57,6.946-1.296l0.777,3.266
		c-1.607,0.726-4.354,1.555-8.345,1.555c-7.723,0-12.336-5.08-12.336-12.648c0-7.567,4.458-13.528,11.766-13.528
		c8.19,0,10.367,7.205,10.367,11.818c0,0.933-0.104,1.659-0.156,2.125H257.74z M271.113-250.463
		c0.052-2.903-1.192-7.413-6.324-7.413c-4.613,0-6.635,4.25-6.998,7.413H271.113z"/>
	<path fill="#231F20" d="M281.17-253.781c0-2.592-0.052-4.717-0.207-6.791h4.043l0.259,4.147h0.104
		c1.244-2.384,4.147-4.717,8.293-4.717c3.473,0,8.864,2.073,8.864,10.678v14.98h-4.562v-14.462c0-4.043-1.503-7.412-5.805-7.412
		c-3.007,0-5.339,2.125-6.117,4.665c-0.208,0.57-0.311,1.348-0.311,2.125v15.083h-4.562V-253.781z"/>
	<path fill="#231F20" d="M315.227-267.776v7.205h6.531v3.473h-6.531v13.529c0,3.11,0.881,4.872,3.421,4.872
		c1.192,0,2.074-0.155,2.644-0.311l0.208,3.421c-0.881,0.363-2.281,0.622-4.043,0.622c-2.125,0-3.836-0.674-4.924-1.918
		c-1.296-1.348-1.762-3.577-1.762-6.531v-13.684h-3.888v-3.473h3.888v-6.013L315.227-267.776z"/>
</g>
<g>
	<path fill="#231F20" d="M-84.479-205.417c0.052,1.555-1.089,2.799-2.903,2.799c-1.607,0-2.747-1.244-2.747-2.799
		c0-1.607,1.192-2.851,2.851-2.851C-85.568-208.267-84.479-207.023-84.479-205.417z M-89.559-173.279v-25.088h4.562v25.088H-89.559z
		"/>
	<path fill="#231F20" d="M-52.549-173.279l-0.363-3.162h-0.155c-1.399,1.97-4.095,3.732-7.671,3.732
		c-5.08,0-7.672-3.577-7.672-7.205c0-6.064,5.391-9.382,15.084-9.33v-0.519c0-2.073-0.57-5.805-5.702-5.805
		c-2.333,0-4.769,0.726-6.531,1.866l-1.037-3.006c2.073-1.348,5.08-2.229,8.242-2.229c7.671,0,9.538,5.235,9.538,10.263v9.382
		c0,2.177,0.104,4.302,0.415,6.013H-52.549z M-53.223-186.083c-4.976-0.104-10.626,0.778-10.626,5.65
		c0,2.955,1.97,4.354,4.302,4.354c3.266,0,5.339-2.074,6.064-4.199c0.156-0.466,0.259-0.985,0.259-1.451V-186.083z"/>
	<path fill="#231F20" d="M-36.168-205.572v7.205h6.531v3.473h-6.531v13.529c0,3.11,0.881,4.872,3.421,4.872
		c1.192,0,2.074-0.155,2.644-0.311l0.208,3.421c-0.881,0.363-2.281,0.622-4.043,0.622c-2.125,0-3.836-0.674-4.924-1.918
		c-1.296-1.348-1.762-3.577-1.762-6.531v-13.684h-3.888v-3.473h3.888v-6.013L-36.168-205.572z"/>
	<path fill="#231F20" d="M-24.505-190.54c0-2.955-0.052-5.495-0.207-7.827h3.991l0.155,4.924h0.208
		c1.14-3.369,3.888-5.494,6.946-5.494c0.518,0,0.881,0.052,1.296,0.155v4.302c-0.467-0.104-0.933-0.155-1.555-0.155
		c-3.214,0-5.494,2.436-6.116,5.857c-0.104,0.622-0.208,1.348-0.208,2.125v13.373h-4.51V-190.54z"/>
	<path fill="#231F20" d="M6.077-173.279l-0.363-3.162H5.559c-1.4,1.97-4.095,3.732-7.671,3.732c-5.08,0-7.672-3.577-7.672-7.205
		c0-6.064,5.391-9.382,15.084-9.33v-0.519c0-2.073-0.57-5.805-5.702-5.805c-2.333,0-4.769,0.726-6.531,1.866l-1.037-3.006
		c2.073-1.348,5.08-2.229,8.242-2.229c7.671,0,9.538,5.235,9.538,10.263v9.382c0,2.177,0.104,4.302,0.415,6.013H6.077z
		 M5.403-186.083c-4.976-0.104-10.626,0.778-10.626,5.65c0,2.955,1.97,4.354,4.302,4.354c3.266,0,5.339-2.074,6.064-4.199
		c0.156-0.466,0.259-0.985,0.259-1.451V-186.083z"/>
	<path fill="#231F20" d="M35.054-174.212c-1.192,0.622-3.835,1.452-7.205,1.452c-7.568,0-12.492-5.132-12.492-12.803
		c0-7.723,5.287-13.321,13.477-13.321c2.695,0,5.08,0.674,6.324,1.296l-1.037,3.524c-1.089-0.622-2.799-1.192-5.287-1.192
		c-5.754,0-8.864,4.25-8.864,9.485c0,5.806,3.732,9.382,8.708,9.382c2.592,0,4.302-0.674,5.598-1.244L35.054-174.212z"/>
	<path fill="#231F20" d="M46.51-205.572v7.205h6.531v3.473H46.51v13.529c0,3.11,0.881,4.872,3.421,4.872
		c1.192,0,2.074-0.155,2.644-0.311l0.208,3.421c-0.881,0.363-2.281,0.622-4.043,0.622c-2.125,0-3.836-0.674-4.924-1.918
		c-1.296-1.348-1.762-3.577-1.762-6.531v-13.684h-3.888v-3.473h3.888v-6.013L46.51-205.572z"/>
	<path fill="#231F20" d="M63.253-205.417c0.052,1.555-1.089,2.799-2.903,2.799c-1.607,0-2.747-1.244-2.747-2.799
		c0-1.607,1.192-2.851,2.851-2.851C62.164-208.267,63.253-207.023,63.253-205.417z M58.173-173.279v-25.088h4.562v25.088H58.173z"/>
	<path fill="#231F20" d="M72.065-198.367l4.924,14.099c0.829,2.281,1.503,4.354,2.021,6.427h0.155
		c0.57-2.073,1.296-4.146,2.125-6.427l4.872-14.099h4.769l-9.849,25.088H76.73l-9.538-25.088H72.065z"/>
	<path fill="#231F20" d="M108.919-173.279l-0.363-3.162h-0.155c-1.399,1.97-4.095,3.732-7.671,3.732
		c-5.08,0-7.672-3.577-7.672-7.205c0-6.064,5.391-9.382,15.084-9.33v-0.519c0-2.073-0.57-5.805-5.702-5.805
		c-2.333,0-4.769,0.726-6.531,1.866l-1.037-3.006c2.073-1.348,5.08-2.229,8.242-2.229c7.671,0,9.538,5.235,9.538,10.263v9.382
		c0,2.177,0.104,4.302,0.415,6.013H108.919z M108.246-186.083c-4.976-0.104-10.626,0.778-10.626,5.65
		c0,2.955,1.97,4.354,4.302,4.354c3.266,0,5.339-2.074,6.064-4.199c0.156-0.466,0.259-0.985,0.259-1.451V-186.083z"/>
	<path fill="#231F20" d="M148.107-177.167h-0.104c-1.348,2.488-4.147,4.458-8.19,4.458c-5.857,0-10.626-5.08-10.626-12.7
		c0-9.382,6.064-13.528,11.352-13.528c3.888,0,6.479,1.917,7.723,4.354h0.104l0.155-3.784h4.302
		c-0.104,2.125-0.155,4.302-0.155,6.894v28.457h-4.562V-177.167z M148.107-188.208c0-0.622-0.052-1.348-0.208-1.918
		c-0.674-2.799-3.11-5.183-6.531-5.183c-4.717,0-7.568,3.991-7.568,9.641c0,4.976,2.384,9.33,7.412,9.33
		c2.955,0,5.495-1.814,6.531-4.976c0.208-0.622,0.363-1.503,0.363-2.177V-188.208z"/>
	<path fill="#231F20" d="M181.178-180.122c0,2.592,0.052,4.873,0.207,6.842h-4.043l-0.259-4.095h-0.104
		c-1.192,2.021-3.836,4.665-8.293,4.665c-3.939,0-8.656-2.177-8.656-10.989v-14.669h4.562v13.892c0,4.769,1.451,7.982,5.598,7.982
		c3.058,0,5.183-2.125,6.013-4.146c0.259-0.674,0.415-1.503,0.415-2.333v-15.395h4.562V-180.122z"/>
	<path fill="#231F20" d="M191.287-184.994c0.104,6.168,4.043,8.708,8.604,8.708c3.266,0,5.235-0.57,6.946-1.296l0.777,3.266
		c-1.607,0.726-4.354,1.555-8.345,1.555c-7.723,0-12.336-5.08-12.336-12.648c0-7.567,4.458-13.528,11.766-13.528
		c8.19,0,10.367,7.205,10.367,11.818c0,0.933-0.104,1.659-0.156,2.125H191.287z M204.66-188.259
		c0.052-2.903-1.192-7.413-6.324-7.413c-4.613,0-6.635,4.25-6.998,7.413H204.66z"/>
	<path fill="#231F20" d="M225.706-191.577c0-2.592-0.052-4.717-0.207-6.791h4.043l0.259,4.147h0.104
		c1.244-2.384,4.147-4.717,8.293-4.717c3.473,0,8.864,2.073,8.864,10.678v14.98H242.5v-14.462c0-4.043-1.503-7.412-5.805-7.412
		c-3.007,0-5.339,2.125-6.117,4.665c-0.208,0.57-0.311,1.348-0.311,2.125v15.083h-4.562V-191.577z"/>
	<path fill="#231F20" d="M277.178-186.03c0,9.278-6.428,13.321-12.492,13.321c-6.79,0-12.025-4.976-12.025-12.907
		c0-8.397,5.495-13.321,12.44-13.321C272.306-198.937,277.178-193.702,277.178-186.03z M257.274-185.771
		c0,5.495,3.162,9.641,7.62,9.641c4.354,0,7.62-4.095,7.62-9.745c0-4.25-2.125-9.641-7.516-9.641S257.274-190.54,257.274-185.771z"
		/>
	<path fill="#231F20" d="M282.933-191.577c0-2.592-0.052-4.717-0.207-6.791h3.991l0.207,4.043h0.156
		c1.399-2.385,3.732-4.613,7.879-4.613c3.421,0,6.013,2.073,7.101,5.028h0.104c0.778-1.399,1.763-2.488,2.799-3.266
		c1.503-1.14,3.162-1.762,5.546-1.762c3.317,0,8.241,2.177,8.241,10.885v14.773h-4.458v-14.203c0-4.82-1.762-7.723-5.442-7.723
		c-2.592,0-4.613,1.918-5.391,4.146c-0.207,0.622-0.363,1.452-0.363,2.281v15.499h-4.458v-15.032c0-3.991-1.763-6.894-5.235-6.894
		c-2.851,0-4.924,2.281-5.65,4.562c-0.259,0.674-0.363,1.451-0.363,2.229v15.136h-4.458V-191.577z"/>
	<path fill="#231F20" d="M328.705-184.994c0.104,6.168,4.043,8.708,8.604,8.708c3.266,0,5.235-0.57,6.946-1.296l0.777,3.266
		c-1.607,0.726-4.354,1.555-8.345,1.555c-7.723,0-12.336-5.08-12.336-12.648c0-7.567,4.458-13.528,11.766-13.528
		c8.19,0,10.367,7.205,10.367,11.818c0,0.933-0.104,1.659-0.156,2.125H328.705z M342.078-188.259
		c0.052-2.903-1.192-7.413-6.324-7.413c-4.613,0-6.635,4.25-6.998,7.413H342.078z M343.167-209.2l-6.324,7.412h-3.266l4.562-7.412
		H343.167z"/>
	<path fill="#231F20" d="M351.513-177.944c1.348,0.881,3.732,1.814,6.013,1.814c3.317,0,4.872-1.659,4.872-3.732
		c0-2.177-1.296-3.369-4.665-4.613c-4.509-1.607-6.635-4.095-6.635-7.101c0-4.043,3.266-7.36,8.656-7.36
		c2.54,0,4.769,0.726,6.168,1.555l-1.14,3.317c-0.985-0.622-2.799-1.451-5.132-1.451c-2.695,0-4.199,1.555-4.199,3.421
		c0,2.074,1.503,3.006,4.769,4.25c4.354,1.659,6.583,3.836,6.583,7.568c0,4.406-3.421,7.516-9.382,7.516
		c-2.747,0-5.287-0.674-7.049-1.711L351.513-177.944z"/>
</g>
<g>
	<path fill="#231F20" d="M-89.559-147.877h4.562v36.802h-4.562V-147.877z"/>
	<path fill="#231F20" d="M-77.326-147.877h4.562v36.802h-4.562V-147.877z"/>
	<path fill="#231F20" d="M-62.553-122.79c0.104,6.168,4.043,8.708,8.604,8.708c3.266,0,5.235-0.57,6.946-1.296l0.777,3.266
		c-1.607,0.726-4.354,1.555-8.345,1.555c-7.723,0-12.336-5.08-12.336-12.648c0-7.567,4.458-13.528,11.766-13.528
		c8.19,0,10.367,7.205,10.367,11.818c0,0.933-0.104,1.659-0.156,2.125H-62.553z M-49.18-126.055
		c0.052-2.903-1.192-7.413-6.324-7.413c-4.613,0-6.635,4.25-6.998,7.413H-49.18z"/>
	<path fill="#231F20" d="M-17.508-136.163c-0.104,1.814-0.208,3.836-0.208,6.894v14.565c0,5.753-1.14,9.278-3.577,11.456
		c-2.436,2.28-5.961,3.006-9.123,3.006c-3.006,0-6.324-0.726-8.345-2.074l1.14-3.473c1.659,1.037,4.25,1.97,7.36,1.97
		c4.665,0,8.086-2.436,8.086-8.76v-2.799h-0.104c-1.399,2.333-4.095,4.199-7.982,4.199c-6.22,0-10.678-5.287-10.678-12.233
		c0-8.501,5.546-13.321,11.3-13.321c4.354,0,6.738,2.281,7.827,4.354h0.104l0.208-3.784H-17.508z M-22.225-126.263
		c0-0.777-0.052-1.451-0.259-2.073c-0.83-2.644-3.059-4.821-6.376-4.821c-4.354,0-7.464,3.681-7.464,9.486
		c0,4.924,2.488,9.019,7.412,9.019c2.799,0,5.339-1.762,6.324-4.665c0.259-0.777,0.363-1.659,0.363-2.436V-126.263z"/>
	<path fill="#231F20" d="M-5.326-143.212c0.052,1.555-1.089,2.799-2.903,2.799c-1.607,0-2.747-1.244-2.747-2.799
		c0-1.607,1.192-2.851,2.851-2.851C-6.415-146.063-5.326-144.819-5.326-143.212z M-10.406-111.075v-25.088h4.562v25.088H-10.406z"/>
	<path fill="#231F20" d="M1.723-128.336c0-2.955-0.052-5.495-0.207-7.827h3.991l0.155,4.924H5.87
		c1.14-3.369,3.888-5.494,6.946-5.494c0.518,0,0.881,0.052,1.296,0.155v4.302c-0.467-0.104-0.933-0.155-1.555-0.155
		c-3.214,0-5.494,2.436-6.116,5.857c-0.104,0.622-0.208,1.348-0.208,2.125v13.373h-4.51V-128.336z"/>
	<path fill="#231F20" d="M28.989-126.781v3.369H16.186v-3.369H28.989z"/>
	<path fill="#231F20" d="M34.328-147.877h4.562v36.802h-4.562V-147.877z"/>
	<path fill="#231F20" d="M60.453-111.075l-0.363-3.162h-0.155c-1.399,1.97-4.095,3.732-7.671,3.732c-5.08,0-7.672-3.577-7.672-7.205
		c0-6.064,5.391-9.382,15.084-9.33v-0.519c0-2.073-0.57-5.805-5.702-5.805c-2.333,0-4.769,0.726-6.531,1.866l-1.037-3.006
		c2.073-1.348,5.08-2.229,8.242-2.229c7.671,0,9.538,5.235,9.538,10.263v9.382c0,2.177,0.104,4.302,0.415,6.013H60.453z
		 M59.779-123.878c-4.976-0.104-10.626,0.778-10.626,5.65c0,2.955,1.97,4.354,4.302,4.354c3.266,0,5.339-2.074,6.064-4.199
		c0.156-0.466,0.259-0.985,0.259-1.451V-123.878z"/>
	<path fill="#231F20" d="M68.592-104.7c1.14-3.058,2.54-8.604,3.11-12.388l5.08-0.519c-1.192,4.406-3.473,10.16-4.924,12.596
		L68.592-104.7z"/>
	<path fill="#231F20" d="M98.759-143.368v7.205h6.531v3.473h-6.531v13.529c0,3.11,0.881,4.872,3.421,4.872
		c1.192,0,2.074-0.155,2.644-0.311l0.208,3.421c-0.881,0.363-2.281,0.622-4.043,0.622c-2.125,0-3.836-0.674-4.924-1.918
		c-1.296-1.348-1.762-3.577-1.762-6.531v-13.684h-3.888v-3.473h3.888v-6.013L98.759-143.368z"/>
	<path fill="#231F20" d="M112.651-122.79c0.104,6.168,4.043,8.708,8.604,8.708c3.266,0,5.235-0.57,6.946-1.296l0.777,3.266
		c-1.607,0.726-4.354,1.555-8.345,1.555c-7.723,0-12.336-5.08-12.336-12.648c0-7.567,4.458-13.528,11.766-13.528
		c8.19,0,10.367,7.205,10.367,11.818c0,0.933-0.104,1.659-0.156,2.125H112.651z M126.024-126.055
		c0.052-2.903-1.192-7.413-6.324-7.413c-4.613,0-6.635,4.25-6.998,7.413H126.024z"/>
	<path fill="#231F20" d="M136.081-129.373c0-2.592-0.052-4.717-0.207-6.791h4.043l0.259,4.147h0.104
		c1.244-2.384,4.147-4.717,8.293-4.717c3.473,0,8.864,2.073,8.864,10.678v14.98h-4.562v-14.462c0-4.043-1.503-7.412-5.805-7.412
		c-3.007,0-5.339,2.125-6.117,4.665c-0.208,0.57-0.311,1.348-0.311,2.125v15.083h-4.562V-129.373z"/>
	<path fill="#231F20" d="M164.228-115.74c1.348,0.881,3.732,1.814,6.013,1.814c3.317,0,4.872-1.659,4.872-3.732
		c0-2.177-1.296-3.369-4.665-4.613c-4.509-1.607-6.635-4.095-6.635-7.101c0-4.043,3.266-7.36,8.656-7.36
		c2.54,0,4.769,0.726,6.168,1.555l-1.14,3.317c-0.985-0.622-2.799-1.451-5.132-1.451c-2.695,0-4.199,1.555-4.199,3.421
		c0,2.074,1.503,3.006,4.769,4.25c4.354,1.659,6.583,3.836,6.583,7.568c0,4.406-3.421,7.516-9.382,7.516
		c-2.747,0-5.287-0.674-7.049-1.711L164.228-115.74z"/>
	<path fill="#231F20" d="M217.981-136.163c-0.104,1.814-0.208,3.836-0.208,6.894v14.565c0,5.753-1.141,9.278-3.577,11.456
		c-2.436,2.28-5.961,3.006-9.123,3.006c-3.006,0-6.324-0.726-8.346-2.074l1.141-3.473c1.659,1.037,4.25,1.97,7.36,1.97
		c4.665,0,8.086-2.436,8.086-8.76v-2.799h-0.104c-1.399,2.333-4.095,4.199-7.982,4.199c-6.22,0-10.678-5.287-10.678-12.233
		c0-8.501,5.546-13.321,11.3-13.321c4.354,0,6.738,2.281,7.827,4.354h0.104l0.208-3.784H217.981z M213.264-126.263
		c0-0.777-0.052-1.451-0.259-2.073c-0.83-2.644-3.059-4.821-6.376-4.821c-4.354,0-7.464,3.681-7.464,9.486
		c0,4.924,2.488,9.019,7.412,9.019c2.799,0,5.339-1.762,6.324-4.665c0.259-0.777,0.363-1.659,0.363-2.436V-126.263z"/>
	<path fill="#231F20" d="M239.233-111.075l-0.363-3.162h-0.155c-1.4,1.97-4.095,3.732-7.671,3.732c-5.08,0-7.672-3.577-7.672-7.205
		c0-6.064,5.391-9.382,15.084-9.33v-0.519c0-2.073-0.57-5.805-5.702-5.805c-2.333,0-4.769,0.726-6.531,1.866l-1.037-3.006
		c2.073-1.348,5.08-2.229,8.242-2.229c7.671,0,9.538,5.235,9.538,10.263v9.382c0,2.177,0.104,4.302,0.415,6.013H239.233z
		 M238.56-123.878c-4.976-0.104-10.626,0.778-10.626,5.65c0,2.955,1.97,4.354,4.302,4.354c3.266,0,5.339-2.074,6.064-4.199
		c0.156-0.466,0.259-0.985,0.259-1.451V-123.878z"/>
	<path fill="#231F20" d="M250.327-129.373c0-2.592-0.052-4.717-0.207-6.791h4.043l0.259,4.147h0.104
		c1.244-2.384,4.147-4.717,8.293-4.717c3.473,0,8.864,2.073,8.864,10.678v14.98h-4.562v-14.462c0-4.043-1.503-7.412-5.805-7.412
		c-3.007,0-5.339,2.125-6.117,4.665c-0.208,0.57-0.311,1.348-0.311,2.125v15.083h-4.562V-129.373z"/>
	<path fill="#231F20" d="M281.636-122.79c0.104,6.168,4.043,8.708,8.604,8.708c3.266,0,5.235-0.57,6.946-1.296l0.777,3.266
		c-1.607,0.726-4.354,1.555-8.345,1.555c-7.723,0-12.336-5.08-12.336-12.648c0-7.567,4.458-13.528,11.766-13.528
		c8.19,0,10.367,7.205,10.367,11.818c0,0.933-0.104,1.659-0.156,2.125H281.636z M295.009-126.055
		c0.052-2.903-1.192-7.413-6.324-7.413c-4.613,0-6.635,4.25-6.998,7.413H295.009z"/>
	<path fill="#231F20" d="M304.444-115.74c1.348,0.881,3.732,1.814,6.013,1.814c3.317,0,4.872-1.659,4.872-3.732
		c0-2.177-1.296-3.369-4.665-4.613c-4.509-1.607-6.635-4.095-6.635-7.101c0-4.043,3.266-7.36,8.656-7.36
		c2.54,0,4.769,0.726,6.168,1.555l-1.14,3.317c-0.985-0.622-2.799-1.451-5.132-1.451c-2.695,0-4.199,1.555-4.199,3.421
		c0,2.074,1.503,3.006,4.769,4.25c4.354,1.659,6.583,3.836,6.583,7.568c0,4.406-3.421,7.516-9.382,7.516
		c-2.747,0-5.287-0.674-7.049-1.711L304.444-115.74z"/>
	<path fill="#231F20" d="M358.249-147.877v30.323c0,2.229,0.052,4.769,0.207,6.479h-4.095l-0.208-4.354h-0.104
		c-1.399,2.799-4.458,4.924-8.553,4.924c-6.064,0-10.729-5.132-10.729-12.751c-0.052-8.345,5.131-13.477,11.248-13.477
		c3.835,0,6.427,1.814,7.568,3.835h0.104v-14.98H358.249z M353.687-125.952c0-0.57-0.052-1.348-0.208-1.918
		c-0.674-2.902-3.162-5.287-6.583-5.287c-4.717,0-7.516,4.147-7.516,9.693c0,5.08,2.488,9.278,7.412,9.278
		c3.058,0,5.857-2.021,6.687-5.443c0.156-0.622,0.208-1.244,0.208-1.97V-125.952z"/>
	<path fill="#231F20" d="M368.357-122.79c0.104,6.168,4.043,8.708,8.604,8.708c3.266,0,5.235-0.57,6.946-1.296l0.777,3.266
		c-1.607,0.726-4.354,1.555-8.345,1.555c-7.723,0-12.336-5.08-12.336-12.648c0-7.567,4.458-13.528,11.766-13.528
		c8.19,0,10.367,7.205,10.367,11.818c0,0.933-0.104,1.659-0.156,2.125H368.357z M381.73-126.055
		c0.052-2.903-1.192-7.413-6.324-7.413c-4.613,0-6.635,4.25-6.998,7.413H381.73z"/>
</g>
<g>
</g>
<g>
	<path fill="#231F20" d="M-87.796-73.959l4.924,14.099c0.829,2.281,1.503,4.354,2.021,6.427h0.155
		c0.57-2.073,1.296-4.146,2.125-6.427l4.872-14.099h4.769l-9.849,25.088h-4.354l-9.538-25.088H-87.796z"/>
	<path fill="#231F20" d="M-62.553-60.585c0.104,6.168,4.043,8.708,8.604,8.708c3.266,0,5.235-0.57,6.946-1.296l0.777,3.266
		c-1.607,0.726-4.354,1.555-8.345,1.555c-7.723,0-12.336-5.08-12.336-12.648c0-7.567,4.458-13.528,11.766-13.528
		c8.19,0,10.367,7.205,10.367,11.818c0,0.933-0.104,1.659-0.156,2.125H-62.553z M-49.18-63.851c0.052-2.903-1.192-7.413-6.324-7.413
		c-4.613,0-6.635,4.25-6.998,7.413H-49.18z"/>
	<path fill="#231F20" d="M-18.13-55.713c0,2.592,0.052,4.873,0.207,6.842h-4.043l-0.259-4.095h-0.104
		c-1.192,2.021-3.836,4.665-8.293,4.665c-3.939,0-8.656-2.177-8.656-10.989v-14.669h4.562v13.892c0,4.769,1.451,7.982,5.598,7.982
		c3.058,0,5.183-2.125,6.013-4.146c0.259-0.674,0.415-1.503,0.415-2.333v-15.395h4.562V-55.713z"/>
	<path fill="#231F20" d="M-10.562-66.132c0-2.955-0.052-5.495-0.207-7.827h3.991l0.155,4.924h0.208
		c1.14-3.369,3.888-5.494,6.946-5.494c0.518,0,0.881,0.052,1.296,0.155v4.302c-0.467-0.104-0.933-0.155-1.555-0.155
		c-3.214,0-5.495,2.436-6.116,5.857c-0.104,0.622-0.208,1.348-0.208,2.125v13.373h-4.51V-66.132z"/>
	<path fill="#231F20" d="M8.462-60.585c0.104,6.168,4.043,8.708,8.604,8.708c3.266,0,5.235-0.57,6.946-1.296l0.777,3.266
		c-1.607,0.726-4.354,1.555-8.345,1.555c-7.723,0-12.336-5.08-12.336-12.648c0-7.567,4.458-13.528,11.766-13.528
		c8.19,0,10.367,7.205,10.367,11.818c0,0.933-0.104,1.659-0.156,2.125H8.462z M21.835-63.851c0.052-2.903-1.192-7.413-6.324-7.413
		c-4.613,0-6.635,4.25-6.998,7.413H21.835z"/>
	<path fill="#231F20" d="M48.376-81.164v7.205h6.531v3.473h-6.531v13.529c0,3.11,0.881,4.872,3.421,4.872
		c1.192,0,2.074-0.155,2.644-0.311l0.208,3.421c-0.881,0.363-2.281,0.622-4.043,0.622c-2.125,0-3.836-0.674-4.924-1.918
		c-1.296-1.348-1.762-3.577-1.762-6.531v-13.684h-3.888v-3.473h3.888v-6.013L48.376-81.164z"/>
	<path fill="#231F20" d="M82.483-61.622c0,9.278-6.428,13.321-12.492,13.321c-6.79,0-12.025-4.976-12.025-12.907
		c0-8.397,5.494-13.321,12.44-13.321C77.611-74.529,82.483-69.294,82.483-61.622z M62.579-61.363c0,5.495,3.162,9.641,7.62,9.641
		c4.354,0,7.62-4.095,7.62-9.745c0-4.25-2.125-9.641-7.516-9.641S62.579-66.132,62.579-61.363z"/>
	<path fill="#231F20" d="M93.732-81.164v7.205h6.531v3.473h-6.531v13.529c0,3.11,0.881,4.872,3.421,4.872
		c1.192,0,2.074-0.155,2.644-0.311l0.208,3.421c-0.881,0.363-2.281,0.622-4.043,0.622c-2.125,0-3.836-0.674-4.924-1.918
		c-1.296-1.348-1.762-3.577-1.762-6.531v-13.684h-3.888v-3.473h3.888v-6.013L93.732-81.164z"/>
	<path fill="#231F20" d="M118.924-60.585c0.104,6.168,4.043,8.708,8.604,8.708c3.266,0,5.235-0.57,6.946-1.296l0.777,3.266
		c-1.607,0.726-4.354,1.555-8.345,1.555c-7.723,0-12.336-5.08-12.336-12.648c0-7.567,4.458-13.528,11.766-13.528
		c8.19,0,10.367,7.205,10.367,11.818c0,0.933-0.104,1.659-0.156,2.125H118.924z M132.297-63.851
		c0.052-2.903-1.192-7.413-6.324-7.413c-4.613,0-6.635,4.25-6.998,7.413H132.297z"/>
	<path fill="#231F20" d="M142.354-85.673h4.562v36.802h-4.562V-85.673z"/>
	<path fill="#231F20" d="M167.39-73.959l3.317,12.751c0.726,2.799,1.399,5.391,1.866,7.982h0.156c0.57-2.54,1.399-5.235,2.229-7.931
		l4.095-12.803h3.836l3.887,12.544c0.933,3.006,1.659,5.65,2.229,8.19h0.155c0.415-2.54,1.089-5.184,1.918-8.138l3.577-12.596h4.51
		l-8.086,25.088h-4.146l-3.836-11.974c-0.881-2.799-1.607-5.287-2.229-8.242h-0.104c-0.622,3.006-1.399,5.598-2.281,8.293
		l-4.043,11.922h-4.146l-7.568-25.088H167.39z"/>
	<path fill="#231F20" d="M205.749-60.585c0.104,6.168,4.043,8.708,8.604,8.708c3.266,0,5.235-0.57,6.946-1.296l0.777,3.266
		c-1.607,0.726-4.354,1.555-8.345,1.555c-7.723,0-12.336-5.08-12.336-12.648c0-7.567,4.458-13.528,11.766-13.528
		c8.19,0,10.367,7.205,10.367,11.818c0,0.933-0.104,1.659-0.156,2.125H205.749z M219.122-63.851
		c0.052-2.903-1.192-7.413-6.324-7.413c-4.613,0-6.635,4.25-6.998,7.413H219.122z"/>
	<path fill="#231F20" d="M228.972-48.871c0.104-1.71,0.207-4.25,0.207-6.479v-30.323h4.51v15.758h0.104
		c1.607-2.799,4.51-4.613,8.553-4.613c6.22,0,10.626,5.183,10.574,12.803c0,8.967-5.65,13.425-11.248,13.425
		c-3.628,0-6.531-1.399-8.397-4.717h-0.156l-0.207,4.146H228.972z M233.688-58.927c0,0.57,0.104,1.14,0.208,1.659
		c0.881,3.162,3.524,5.339,6.842,5.339c4.769,0,7.62-3.888,7.62-9.641c0-5.028-2.592-9.33-7.464-9.33
		c-3.11,0-6.013,2.125-6.946,5.598c-0.104,0.519-0.259,1.141-0.259,1.866V-58.927z"/>
	<path fill="#231F20" d="M256.393-51.566c0-1.918,1.296-3.266,3.11-3.266c1.814,0,3.058,1.348,3.058,3.266
		c0,1.866-1.192,3.266-3.11,3.266C257.637-48.301,256.393-49.7,256.393-51.566z"/>
</g>
<line fill="none" stroke="#BBBDBF" x1="915.25" y1="780" x2="915.25" y2="274.331"/>
<line fill="none" stroke="#BBBDBF" x1="635.25" y1="780" x2="635.25" y2="274.331"/>
<line fill="none" stroke="#231F20" stroke-width="8" x1="156.083" y1="247.768" x2="156.083" y2="0.233"/>
<line fill="none" stroke="#BBBDBF" x1="0.083" y1="307.035" x2="635.75" y2="307.035"/>
<line fill="none" stroke="#BBBDBF" x1="0.083" y1="123.5" x2="156.083" y2="123.5"/>
<line fill="none" stroke="#231F20" stroke-width="8" x1="3.083" y1="387.535" x2="3.083" y2="307.535"/>
<g>
</g>
<g>
</g>
<g>
</g>
<g>
</g>
<g>
</g>
<g>
</g>
<g>
</g>
<g>
</g>
<g>
</g>
<g>
</g>
<g>
</g>
<g>
</g>
<g>
</g>
<g>
</g>
<g>
</g>
</svg>
