<?xml version="1.0" encoding="utf-8"?>
<!-- Generator: Adobe Illustrator 16.0.0, SVG Export Plug-In . SVG Version: 6.00 Build 0)  -->
<!DOCTYPE svg PUBLIC "-//W3C//DTD SVG 1.1//EN" "http://www.w3.org/Graphics/SVG/1.1/DTD/svg11.dtd">
<svg version="1.1" id="Layer_1" xmlns="http://www.w3.org/2000/svg" xmlns:xlink="http://www.w3.org/1999/xlink" x="0px" y="0px"
	 width="113px" height="112px" viewBox="0 0 113 112" enable-background="new 0 0 113 112" xml:space="preserve">
<line fill="none" stroke="#BBBDBF" x1="-446" y1="411.744" x2="282" y2="411.744"/>
<line fill="none" stroke="#BBBDBF" x1="-388.334" y1="494.913" x2="-286" y2="494.913"/>
<line fill="none" stroke="#BBBDBF" x1="-73" y1="606.913" x2="38.5" y2="606.913"/>
<line fill="none" stroke="#BBBDBF" x1="38" y1="840.744" x2="38" y2="411.244"/>
<line fill="none" stroke="#BBBDBF" x1="-72.5" y1="840.744" x2="-72.5" y2="411.244"/>
<polyline fill="none" stroke="#BBBDBF" points="-389.666,841.744 -389.666,412.244 -285,494.413 "/>
<polyline fill="none" stroke="#BBBDBF" points="-285.5,841.744 -285.5,412.244 -388.333,494.413 "/>
<line fill="none" stroke="#231F20" stroke-width="8" x1="37.5" y1="412.244" x2="329.667" y2="412.244"/>
<line fill="none" stroke="#231F20" stroke-width="8" x1="444.332" y1="411.744" x2="551.668" y2="411.744"/>
<line fill="none" stroke="#231F20" stroke-width="8" x1="142.151" y1="1204.743" x2="142.151" y2="775.244"/>
<line fill="none" stroke="#231F20" stroke-width="8" x1="97.151" y1="707.493" x2="97.151" y2="595.994"/>
<g>
	<defs>
		<rect id="SVGID_1_" x="-517.95" y="-687.38" width="1299.33" height="3267.586"/>
	</defs>
	<clipPath id="SVGID_2_">
		<use xlink:href="#SVGID_1_"  overflow="visible"/>
	</clipPath>
	<path clip-path="url(#SVGID_2_)" fill="none" stroke="#BBBDBF" stroke-width="0.904" d="M424.169,171.297v110.288h112.096
		C536.265,281.585,530.841,171.297,424.169,171.297z"/>
</g>
<g>
	<defs>
		<rect id="SVGID_3_" x="-941.583" y="-857.45" width="1299.33" height="3267.586"/>
	</defs>
	<clipPath id="SVGID_4_">
		<use xlink:href="#SVGID_3_"  overflow="visible"/>
	</clipPath>
	<path clip-path="url(#SVGID_4_)" fill="none" stroke="#BBBDBF" stroke-width="0.904" d="M0.536,1.228v110.288h112.096
		C112.631,111.516,107.208,1.228,0.536,1.228z"/>
</g>
<rect x="-448.5" y="303.5" fill="none" stroke="#BBBDBF" width="1000" height="28"/>
<g>
</g>
<g>
</g>
<g>
</g>
<g>
</g>
<g>
</g>
<g>
</g>
<g>
</g>
<g>
</g>
<g>
</g>
<g>
</g>
<g>
</g>
<g>
</g>
<g>
</g>
<g>
</g>
<g>
</g>
</svg>
