<?xml version="1.0" encoding="utf-8"?>
<!-- Generator: Adobe Illustrator 16.0.0, SVG Export Plug-In . SVG Version: 6.00 Build 0)  -->
<!DOCTYPE svg PUBLIC "-//W3C//DTD SVG 1.1//EN" "http://www.w3.org/Graphics/SVG/1.1/DTD/svg11.dtd">
<svg version="1.1" id="Layer_1" xmlns="http://www.w3.org/2000/svg" xmlns:xlink="http://www.w3.org/1999/xlink" x="0px" y="0px"
	 width="1188px" height="505.669px" viewBox="0 0 1188 505.669" enable-background="new 0 0 1188 505.669" xml:space="preserve">
<g>
	<path fill="#231F20" d="M-88.486-544.75h18.816v3.784h-14.307v11.611h13.218v3.732h-13.218v15.81h-4.509V-544.75z"/>
	<path fill="#231F20" d="M-64.693-527.075c0-2.955-0.052-5.495-0.207-7.827h3.991l0.155,4.924h0.208
		c1.14-3.369,3.888-5.494,6.946-5.494c0.518,0,0.881,0.052,1.296,0.155v4.302c-0.467-0.104-0.933-0.155-1.555-0.155
		c-3.214,0-5.495,2.436-6.116,5.857c-0.104,0.622-0.208,1.348-0.208,2.125v13.373h-4.51V-527.075z"/>
	<path fill="#231F20" d="M-34.111-509.814l-0.363-3.162h-0.155c-1.399,1.97-4.095,3.732-7.671,3.732
		c-5.08,0-7.672-3.577-7.672-7.205c0-6.064,5.391-9.382,15.084-9.33v-0.519c0-2.073-0.57-5.805-5.702-5.805
		c-2.333,0-4.769,0.726-6.531,1.866l-1.037-3.006c2.073-1.348,5.08-2.229,8.242-2.229c7.671,0,9.538,5.235,9.538,10.263v9.382
		c0,2.177,0.104,4.302,0.415,6.013H-34.111z M-34.785-522.618c-4.976-0.104-10.626,0.778-10.626,5.65
		c0,2.955,1.97,4.354,4.302,4.354c3.266,0,5.339-2.074,6.064-4.199c0.156-0.466,0.259-0.985,0.259-1.451V-522.618z"/>
	<path fill="#231F20" d="M-23.639-514.479c1.348,0.881,3.732,1.814,6.013,1.814c3.317,0,4.872-1.659,4.872-3.732
		c0-2.177-1.296-3.369-4.665-4.613c-4.509-1.607-6.635-4.095-6.635-7.101c0-4.043,3.266-7.36,8.656-7.36
		c2.54,0,4.769,0.726,6.168,1.555l-1.14,3.317c-0.985-0.622-2.799-1.451-5.132-1.451c-2.695,0-4.199,1.555-4.199,3.421
		c0,2.074,1.503,3.006,4.769,4.25c4.354,1.659,6.583,3.836,6.583,7.568c0,4.406-3.421,7.516-9.382,7.516
		c-2.747,0-5.287-0.674-7.049-1.711L-23.639-514.479z"/>
	<path fill="#231F20" d="M0.05-521.529c0.104,6.168,4.043,8.708,8.604,8.708c3.266,0,5.235-0.57,6.946-1.296l0.777,3.266
		c-1.607,0.726-4.354,1.555-8.345,1.555c-7.723,0-12.336-5.08-12.336-12.648c0-7.567,4.458-13.528,11.766-13.528
		c8.19,0,10.367,7.205,10.367,11.818c0,0.933-0.104,1.659-0.156,2.125H0.05z M13.423-524.794c0.052-2.903-1.192-7.413-6.324-7.413
		c-4.613,0-6.635,4.25-6.998,7.413H13.423z"/>
	<path fill="#231F20" d="M39.548-541.952c0.052,1.555-1.089,2.799-2.903,2.799c-1.607,0-2.747-1.244-2.747-2.799
		c0-1.607,1.192-2.851,2.851-2.851C38.459-544.802,39.548-543.559,39.548-541.952z M34.468-509.814v-25.088h4.562v25.088H34.468z"/>
	<path fill="#231F20" d="M46.598-528.112c0-2.592-0.052-4.717-0.207-6.791h4.043l0.259,4.147h0.104
		c1.244-2.384,4.147-4.717,8.293-4.717c3.473,0,8.864,2.073,8.864,10.678v14.98h-4.562v-14.462c0-4.043-1.503-7.412-5.805-7.412
		c-3.007,0-5.339,2.125-6.117,4.665c-0.208,0.57-0.311,1.348-0.311,2.125v15.083h-4.562V-528.112z"/>
	<path fill="#231F20" d="M80.447-541.952c0.052,1.555-1.089,2.799-2.903,2.799c-1.607,0-2.747-1.244-2.747-2.799
		c0-1.607,1.192-2.851,2.851-2.851C79.358-544.802,80.447-543.559,80.447-541.952z M75.367-509.814v-25.088h4.562v25.088H75.367z"/>
	<path fill="#231F20" d="M105.379-510.748c-1.192,0.622-3.835,1.452-7.205,1.452c-7.568,0-12.492-5.132-12.492-12.803
		c0-7.723,5.287-13.321,13.477-13.321c2.695,0,5.08,0.674,6.324,1.296l-1.037,3.524c-1.089-0.622-2.799-1.192-5.287-1.192
		c-5.754,0-8.864,4.25-8.864,9.485c0,5.806,3.732,9.382,8.708,9.382c2.592,0,4.302-0.674,5.598-1.244L105.379-510.748z"/>
	<path fill="#231F20" d="M115.799-541.952c0.052,1.555-1.089,2.799-2.903,2.799c-1.607,0-2.747-1.244-2.747-2.799
		c0-1.607,1.192-2.851,2.851-2.851C114.71-544.802,115.799-543.559,115.799-541.952z M110.719-509.814v-25.088h4.562v25.088H110.719
		z"/>
	<path fill="#231F20" d="M136.74-509.814l-0.363-3.162h-0.155c-1.4,1.97-4.095,3.732-7.671,3.732c-5.08,0-7.672-3.577-7.672-7.205
		c0-6.064,5.391-9.382,15.084-9.33v-0.519c0-2.073-0.57-5.805-5.702-5.805c-2.333,0-4.769,0.726-6.531,1.866l-1.037-3.006
		c2.073-1.348,5.08-2.229,8.242-2.229c7.671,0,9.538,5.235,9.538,10.263v9.382c0,2.177,0.104,4.302,0.415,6.013H136.74z
		 M136.066-522.618c-4.976-0.104-10.626,0.778-10.626,5.65c0,2.955,1.97,4.354,4.302,4.354c3.266,0,5.339-2.074,6.064-4.199
		c0.156-0.466,0.259-0.985,0.259-1.451V-522.618z"/>
	<path fill="#231F20" d="M147.833-546.617h4.562v36.802h-4.562V-546.617z"/>
	<path fill="#231F20" d="M156.594-503.439c1.141-3.058,2.54-8.604,3.11-12.388l5.08-0.519c-1.192,4.406-3.473,10.16-4.924,12.596
		L156.594-503.439z"/>
	<path fill="#231F20" d="M181.267-526.712c0-3.214-0.104-5.805-0.207-8.19h4.095l0.208,4.302h0.104
		c1.866-3.058,4.821-4.872,8.916-4.872c6.064,0,10.626,5.131,10.626,12.751c0,9.019-5.495,13.477-11.403,13.477
		c-3.317,0-6.22-1.452-7.724-3.939h-0.104v13.632h-4.51V-526.712z M185.776-520.026c0,0.674,0.104,1.296,0.208,1.866
		c0.829,3.162,3.576,5.339,6.842,5.339c4.821,0,7.62-3.939,7.62-9.693c0-5.028-2.644-9.33-7.464-9.33
		c-3.11,0-6.013,2.229-6.894,5.65c-0.156,0.57-0.311,1.244-0.311,1.866V-520.026z"/>
	<path fill="#231F20" d="M233.464-522.565c0,9.278-6.428,13.321-12.492,13.321c-6.79,0-12.025-4.976-12.025-12.907
		c0-8.397,5.495-13.321,12.44-13.321C228.592-535.472,233.464-530.237,233.464-522.565z M213.56-522.307
		c0,5.495,3.162,9.641,7.62,9.641c4.354,0,7.62-4.095,7.62-9.745c0-4.25-2.125-9.641-7.516-9.641S213.56-527.075,213.56-522.307z"/>
	<path fill="#231F20" d="M244.713-542.107v7.205h6.531v3.473h-6.531v13.529c0,3.11,0.881,4.872,3.421,4.872
		c1.192,0,2.074-0.155,2.644-0.311l0.208,3.421c-0.881,0.363-2.281,0.622-4.043,0.622c-2.125,0-3.836-0.674-4.924-1.918
		c-1.296-1.348-1.762-3.577-1.762-6.531v-13.684h-3.888v-3.473h3.888v-6.013L244.713-542.107z"/>
	<path fill="#231F20" d="M258.657-521.529c0.104,6.168,4.043,8.708,8.604,8.708c3.266,0,5.235-0.57,6.946-1.296l0.777,3.266
		c-1.607,0.726-4.354,1.555-8.345,1.555c-7.723,0-12.336-5.08-12.336-12.648c0-7.567,4.458-13.528,11.766-13.528
		c8.19,0,10.367,7.205,10.367,11.818c0,0.933-0.104,1.659-0.156,2.125H258.657z M272.03-524.794
		c0.052-2.903-1.192-7.413-6.324-7.413c-4.613,0-6.635,4.25-6.998,7.413H272.03z"/>
	<path fill="#231F20" d="M282.087-528.112c0-2.592-0.052-4.717-0.207-6.791h4.043l0.259,4.147h0.104
		c1.244-2.384,4.147-4.717,8.293-4.717c3.473,0,8.864,2.073,8.864,10.678v14.98h-4.562v-14.462c0-4.043-1.503-7.412-5.805-7.412
		c-3.007,0-5.339,2.125-6.117,4.665c-0.208,0.57-0.311,1.348-0.311,2.125v15.083h-4.562V-528.112z"/>
	<path fill="#231F20" d="M316.144-542.107v7.205h6.531v3.473h-6.531v13.529c0,3.11,0.881,4.872,3.421,4.872
		c1.192,0,2.074-0.155,2.644-0.311l0.208,3.421c-0.881,0.363-2.281,0.622-4.043,0.622c-2.125,0-3.836-0.674-4.924-1.918
		c-1.296-1.348-1.762-3.577-1.762-6.531v-13.684h-3.888v-3.473h3.888v-6.013L316.144-542.107z"/>
</g>
<g>
	<path fill="#231F20" d="M-83.562-479.748c0.052,1.555-1.089,2.799-2.903,2.799c-1.607,0-2.747-1.244-2.747-2.799
		c0-1.607,1.192-2.851,2.851-2.851C-84.651-482.598-83.562-481.354-83.562-479.748z M-88.642-447.61v-25.088h4.562v25.088H-88.642z"
		/>
	<path fill="#231F20" d="M-51.632-447.61l-0.363-3.162h-0.155c-1.399,1.97-4.095,3.732-7.671,3.732c-5.08,0-7.672-3.577-7.672-7.205
		c0-6.064,5.391-9.382,15.084-9.33v-0.519c0-2.073-0.57-5.805-5.702-5.805c-2.333,0-4.769,0.726-6.531,1.866l-1.037-3.006
		c2.073-1.348,5.08-2.229,8.242-2.229c7.671,0,9.538,5.235,9.538,10.263v9.382c0,2.177,0.104,4.302,0.415,6.013H-51.632z
		 M-52.306-460.414c-4.976-0.104-10.626,0.778-10.626,5.65c0,2.955,1.97,4.354,4.302,4.354c3.266,0,5.339-2.074,6.064-4.199
		c0.156-0.466,0.259-0.985,0.259-1.451V-460.414z"/>
	<path fill="#231F20" d="M-35.251-479.903v7.205h6.531v3.473h-6.531v13.529c0,3.11,0.881,4.872,3.421,4.872
		c1.192,0,2.074-0.155,2.644-0.311l0.208,3.421c-0.881,0.363-2.281,0.622-4.043,0.622c-2.125,0-3.836-0.674-4.924-1.918
		c-1.296-1.348-1.762-3.577-1.762-6.531v-13.684h-3.888v-3.473h3.888v-6.013L-35.251-479.903z"/>
	<path fill="#231F20" d="M-23.588-464.871c0-2.955-0.052-5.495-0.207-7.827h3.991l0.155,4.924h0.208
		c1.14-3.369,3.888-5.494,6.946-5.494c0.518,0,0.881,0.052,1.296,0.155v4.302c-0.467-0.104-0.933-0.155-1.555-0.155
		c-3.214,0-5.494,2.436-6.116,5.857c-0.104,0.622-0.208,1.348-0.208,2.125v13.373h-4.51V-464.871z"/>
	<path fill="#231F20" d="M6.994-447.61l-0.363-3.162H6.476c-1.4,1.97-4.095,3.732-7.671,3.732c-5.08,0-7.672-3.577-7.672-7.205
		c0-6.064,5.391-9.382,15.084-9.33v-0.519c0-2.073-0.57-5.805-5.702-5.805c-2.333,0-4.769,0.726-6.531,1.866l-1.037-3.006
		c2.073-1.348,5.08-2.229,8.242-2.229c7.671,0,9.538,5.235,9.538,10.263v9.382c0,2.177,0.104,4.302,0.415,6.013H6.994z
		 M6.32-460.414c-4.976-0.104-10.626,0.778-10.626,5.65c0,2.955,1.97,4.354,4.302,4.354c3.266,0,5.339-2.074,6.064-4.199
		c0.156-0.466,0.259-0.985,0.259-1.451V-460.414z"/>
	<path fill="#231F20" d="M35.971-448.543c-1.192,0.622-3.835,1.452-7.205,1.452c-7.568,0-12.492-5.132-12.492-12.803
		c0-7.723,5.287-13.321,13.477-13.321c2.695,0,5.08,0.674,6.324,1.296l-1.037,3.524c-1.089-0.622-2.799-1.192-5.287-1.192
		c-5.754,0-8.864,4.25-8.864,9.485c0,5.806,3.732,9.382,8.708,9.382c2.592,0,4.302-0.674,5.598-1.244L35.971-448.543z"/>
	<path fill="#231F20" d="M47.427-479.903v7.205h6.531v3.473h-6.531v13.529c0,3.11,0.881,4.872,3.421,4.872
		c1.192,0,2.074-0.155,2.644-0.311l0.208,3.421c-0.881,0.363-2.281,0.622-4.043,0.622c-2.125,0-3.836-0.674-4.924-1.918
		c-1.296-1.348-1.762-3.577-1.762-6.531v-13.684h-3.888v-3.473h3.888v-6.013L47.427-479.903z"/>
	<path fill="#231F20" d="M64.17-479.748c0.052,1.555-1.089,2.799-2.903,2.799c-1.607,0-2.747-1.244-2.747-2.799
		c0-1.607,1.192-2.851,2.851-2.851C63.081-482.598,64.17-481.354,64.17-479.748z M59.09-447.61v-25.088h4.562v25.088H59.09z"/>
	<path fill="#231F20" d="M72.982-472.698l4.924,14.099c0.829,2.281,1.503,4.354,2.021,6.427h0.155
		c0.57-2.073,1.296-4.146,2.125-6.427l4.872-14.099h4.769l-9.849,25.088h-4.354l-9.538-25.088H72.982z"/>
	<path fill="#231F20" d="M109.836-447.61l-0.363-3.162h-0.155c-1.399,1.97-4.095,3.732-7.671,3.732c-5.08,0-7.672-3.577-7.672-7.205
		c0-6.064,5.391-9.382,15.084-9.33v-0.519c0-2.073-0.57-5.805-5.702-5.805c-2.333,0-4.769,0.726-6.531,1.866l-1.037-3.006
		c2.073-1.348,5.08-2.229,8.242-2.229c7.671,0,9.538,5.235,9.538,10.263v9.382c0,2.177,0.104,4.302,0.415,6.013H109.836z
		 M109.163-460.414c-4.976-0.104-10.626,0.778-10.626,5.65c0,2.955,1.97,4.354,4.302,4.354c3.266,0,5.339-2.074,6.064-4.199
		c0.156-0.466,0.259-0.985,0.259-1.451V-460.414z"/>
	<path fill="#231F20" d="M149.024-451.498h-0.104c-1.348,2.488-4.147,4.458-8.19,4.458c-5.857,0-10.626-5.08-10.626-12.7
		c0-9.382,6.064-13.528,11.352-13.528c3.888,0,6.479,1.917,7.723,4.354h0.104l0.155-3.784h4.302
		c-0.104,2.125-0.155,4.302-0.155,6.894v28.457h-4.562V-451.498z M149.024-462.539c0-0.622-0.052-1.348-0.208-1.918
		c-0.674-2.799-3.11-5.183-6.531-5.183c-4.717,0-7.568,3.991-7.568,9.641c0,4.976,2.384,9.33,7.412,9.33
		c2.955,0,5.495-1.814,6.531-4.976c0.208-0.622,0.363-1.503,0.363-2.177V-462.539z"/>
	<path fill="#231F20" d="M182.095-454.453c0,2.592,0.052,4.873,0.207,6.842h-4.043L178-451.705h-0.104
		c-1.192,2.021-3.836,4.665-8.293,4.665c-3.939,0-8.656-2.177-8.656-10.989v-14.669h4.562v13.892c0,4.769,1.451,7.982,5.598,7.982
		c3.058,0,5.183-2.125,6.013-4.146c0.259-0.674,0.415-1.503,0.415-2.333v-15.395h4.562V-454.453z"/>
	<path fill="#231F20" d="M192.204-459.325c0.104,6.168,4.043,8.708,8.604,8.708c3.266,0,5.235-0.57,6.946-1.296l0.777,3.266
		c-1.607,0.726-4.354,1.555-8.345,1.555c-7.723,0-12.336-5.08-12.336-12.648c0-7.567,4.458-13.528,11.766-13.528
		c8.19,0,10.367,7.205,10.367,11.818c0,0.933-0.104,1.659-0.156,2.125H192.204z M205.577-462.59
		c0.052-2.903-1.192-7.413-6.324-7.413c-4.613,0-6.635,4.25-6.998,7.413H205.577z"/>
	<path fill="#231F20" d="M226.623-465.908c0-2.592-0.052-4.717-0.207-6.791h4.043l0.259,4.147h0.104
		c1.244-2.384,4.147-4.717,8.293-4.717c3.473,0,8.864,2.073,8.864,10.678v14.98h-4.562v-14.462c0-4.043-1.503-7.412-5.805-7.412
		c-3.007,0-5.339,2.125-6.117,4.665c-0.208,0.57-0.311,1.348-0.311,2.125v15.083h-4.562V-465.908z"/>
	<path fill="#231F20" d="M278.095-460.361c0,9.278-6.428,13.321-12.492,13.321c-6.79,0-12.025-4.976-12.025-12.907
		c0-8.397,5.495-13.321,12.44-13.321C273.223-473.268,278.095-468.033,278.095-460.361z M258.191-460.103
		c0,5.495,3.162,9.641,7.62,9.641c4.354,0,7.62-4.095,7.62-9.745c0-4.25-2.125-9.641-7.516-9.641S258.191-464.871,258.191-460.103z"
		/>
	<path fill="#231F20" d="M283.85-465.908c0-2.592-0.052-4.717-0.207-6.791h3.991l0.207,4.043h0.156
		c1.399-2.385,3.732-4.613,7.879-4.613c3.421,0,6.013,2.073,7.101,5.028h0.104c0.778-1.399,1.763-2.488,2.799-3.266
		c1.503-1.14,3.162-1.762,5.546-1.762c3.317,0,8.241,2.177,8.241,10.885v14.773h-4.458v-14.203c0-4.82-1.762-7.723-5.442-7.723
		c-2.592,0-4.613,1.918-5.391,4.146c-0.207,0.622-0.363,1.452-0.363,2.281v15.499h-4.458v-15.032c0-3.991-1.763-6.894-5.235-6.894
		c-2.851,0-4.924,2.281-5.65,4.562c-0.259,0.674-0.363,1.451-0.363,2.229v15.136h-4.458V-465.908z"/>
	<path fill="#231F20" d="M329.622-459.325c0.104,6.168,4.043,8.708,8.604,8.708c3.266,0,5.235-0.57,6.946-1.296l0.777,3.266
		c-1.607,0.726-4.354,1.555-8.345,1.555c-7.723,0-12.336-5.08-12.336-12.648c0-7.567,4.458-13.528,11.766-13.528
		c8.19,0,10.367,7.205,10.367,11.818c0,0.933-0.104,1.659-0.156,2.125H329.622z M342.995-462.59
		c0.052-2.903-1.192-7.413-6.324-7.413c-4.613,0-6.635,4.25-6.998,7.413H342.995z M344.083-483.531l-6.324,7.412h-3.266l4.562-7.412
		H344.083z"/>
	<path fill="#231F20" d="M352.43-452.275c1.348,0.881,3.732,1.814,6.013,1.814c3.317,0,4.872-1.659,4.872-3.732
		c0-2.177-1.296-3.369-4.665-4.613c-4.509-1.607-6.635-4.095-6.635-7.101c0-4.043,3.266-7.36,8.656-7.36
		c2.54,0,4.769,0.726,6.168,1.555l-1.14,3.317c-0.985-0.622-2.799-1.451-5.132-1.451c-2.695,0-4.199,1.555-4.199,3.421
		c0,2.074,1.503,3.006,4.769,4.25c4.354,1.659,6.583,3.836,6.583,7.568c0,4.406-3.421,7.516-9.382,7.516
		c-2.747,0-5.287-0.674-7.049-1.711L352.43-452.275z"/>
</g>
<g>
	<path fill="#231F20" d="M-88.642-422.208h4.562v36.802h-4.562V-422.208z"/>
	<path fill="#231F20" d="M-76.409-422.208h4.562v36.802h-4.562V-422.208z"/>
	<path fill="#231F20" d="M-61.636-397.121c0.104,6.168,4.043,8.708,8.604,8.708c3.266,0,5.235-0.57,6.946-1.296l0.777,3.266
		c-1.607,0.726-4.354,1.555-8.345,1.555c-7.723,0-12.336-5.08-12.336-12.648c0-7.567,4.458-13.528,11.766-13.528
		c8.19,0,10.367,7.205,10.367,11.818c0,0.933-0.104,1.659-0.156,2.125H-61.636z M-48.263-400.386
		c0.052-2.903-1.192-7.413-6.324-7.413c-4.613,0-6.635,4.25-6.998,7.413H-48.263z"/>
	<path fill="#231F20" d="M-16.591-410.494c-0.104,1.814-0.208,3.836-0.208,6.894v14.565c0,5.753-1.14,9.278-3.577,11.456
		c-2.436,2.28-5.961,3.006-9.123,3.006c-3.006,0-6.324-0.726-8.345-2.074l1.14-3.473c1.659,1.037,4.25,1.97,7.36,1.97
		c4.665,0,8.086-2.436,8.086-8.76v-2.799h-0.104c-1.399,2.333-4.095,4.199-7.982,4.199c-6.22,0-10.678-5.287-10.678-12.233
		c0-8.501,5.546-13.321,11.3-13.321c4.354,0,6.738,2.281,7.827,4.354h0.104l0.208-3.784H-16.591z M-21.308-400.594
		c0-0.777-0.052-1.451-0.259-2.073c-0.83-2.644-3.059-4.821-6.376-4.821c-4.354,0-7.464,3.681-7.464,9.486
		c0,4.924,2.488,9.019,7.412,9.019c2.799,0,5.339-1.762,6.324-4.665c0.259-0.777,0.363-1.659,0.363-2.436V-400.594z"/>
	<path fill="#231F20" d="M-4.409-417.543c0.052,1.555-1.089,2.799-2.903,2.799c-1.607,0-2.747-1.244-2.747-2.799
		c0-1.607,1.192-2.851,2.851-2.851C-5.498-420.394-4.409-419.15-4.409-417.543z M-9.489-385.406v-25.088h4.562v25.088H-9.489z"/>
	<path fill="#231F20" d="M2.64-402.667c0-2.955-0.052-5.495-0.207-7.827h3.991l0.155,4.924h0.208
		c1.14-3.369,3.888-5.494,6.946-5.494c0.518,0,0.881,0.052,1.296,0.155v4.302c-0.467-0.104-0.933-0.155-1.555-0.155
		c-3.214,0-5.494,2.436-6.116,5.857c-0.104,0.622-0.208,1.348-0.208,2.125v13.373H2.64V-402.667z"/>
	<path fill="#231F20" d="M29.906-401.112v3.369H17.103v-3.369H29.906z"/>
	<path fill="#231F20" d="M35.245-422.208h4.562v36.802h-4.562V-422.208z"/>
	<path fill="#231F20" d="M61.37-385.406l-0.363-3.162h-0.155c-1.399,1.97-4.095,3.732-7.671,3.732c-5.08,0-7.672-3.577-7.672-7.205
		c0-6.064,5.391-9.382,15.084-9.33v-0.519c0-2.073-0.57-5.805-5.702-5.805c-2.333,0-4.769,0.726-6.531,1.866l-1.037-3.006
		c2.073-1.348,5.08-2.229,8.242-2.229c7.671,0,9.538,5.235,9.538,10.263v9.382c0,2.177,0.104,4.302,0.415,6.013H61.37z
		 M60.696-398.209c-4.976-0.104-10.626,0.778-10.626,5.65c0,2.955,1.97,4.354,4.302,4.354c3.266,0,5.339-2.074,6.064-4.199
		c0.156-0.466,0.259-0.985,0.259-1.451V-398.209z"/>
	<path fill="#231F20" d="M69.509-379.031c1.14-3.058,2.54-8.604,3.11-12.388l5.08-0.519c-1.192,4.406-3.473,10.16-4.924,12.596
		L69.509-379.031z"/>
	<path fill="#231F20" d="M99.676-417.699v7.205h6.531v3.473h-6.531v13.529c0,3.11,0.881,4.872,3.421,4.872
		c1.192,0,2.074-0.155,2.644-0.311l0.208,3.421c-0.881,0.363-2.281,0.622-4.043,0.622c-2.125,0-3.836-0.674-4.924-1.918
		c-1.296-1.348-1.762-3.577-1.762-6.531v-13.684h-3.888v-3.473h3.888v-6.013L99.676-417.699z"/>
	<path fill="#231F20" d="M113.568-397.121c0.104,6.168,4.043,8.708,8.604,8.708c3.266,0,5.235-0.57,6.946-1.296l0.777,3.266
		c-1.607,0.726-4.354,1.555-8.345,1.555c-7.723,0-12.336-5.08-12.336-12.648c0-7.567,4.458-13.528,11.766-13.528
		c8.19,0,10.367,7.205,10.367,11.818c0,0.933-0.104,1.659-0.156,2.125H113.568z M126.941-400.386
		c0.052-2.903-1.192-7.413-6.324-7.413c-4.613,0-6.635,4.25-6.998,7.413H126.941z"/>
	<path fill="#231F20" d="M136.998-403.704c0-2.592-0.052-4.717-0.207-6.791h4.043l0.259,4.147h0.104
		c1.244-2.384,4.147-4.717,8.293-4.717c3.473,0,8.864,2.073,8.864,10.678v14.98h-4.562v-14.462c0-4.043-1.503-7.412-5.805-7.412
		c-3.007,0-5.339,2.125-6.117,4.665c-0.208,0.57-0.311,1.348-0.311,2.125v15.083h-4.562V-403.704z"/>
	<path fill="#231F20" d="M165.145-390.071c1.348,0.881,3.732,1.814,6.013,1.814c3.317,0,4.872-1.659,4.872-3.732
		c0-2.177-1.296-3.369-4.665-4.613c-4.509-1.607-6.635-4.095-6.635-7.101c0-4.043,3.266-7.36,8.656-7.36
		c2.54,0,4.769,0.726,6.168,1.555l-1.14,3.317c-0.985-0.622-2.799-1.451-5.132-1.451c-2.695,0-4.199,1.555-4.199,3.421
		c0,2.074,1.503,3.006,4.769,4.25c4.354,1.659,6.583,3.836,6.583,7.568c0,4.406-3.421,7.516-9.382,7.516
		c-2.747,0-5.287-0.674-7.049-1.711L165.145-390.071z"/>
	<path fill="#231F20" d="M218.898-410.494c-0.104,1.814-0.208,3.836-0.208,6.894v14.565c0,5.753-1.141,9.278-3.577,11.456
		c-2.436,2.28-5.961,3.006-9.123,3.006c-3.006,0-6.324-0.726-8.346-2.074l1.141-3.473c1.659,1.037,4.25,1.97,7.36,1.97
		c4.665,0,8.086-2.436,8.086-8.76v-2.799h-0.104c-1.399,2.333-4.095,4.199-7.982,4.199c-6.22,0-10.678-5.287-10.678-12.233
		c0-8.501,5.546-13.321,11.3-13.321c4.354,0,6.738,2.281,7.827,4.354h0.104l0.208-3.784H218.898z M214.181-400.594
		c0-0.777-0.052-1.451-0.259-2.073c-0.83-2.644-3.059-4.821-6.376-4.821c-4.354,0-7.464,3.681-7.464,9.486
		c0,4.924,2.488,9.019,7.412,9.019c2.799,0,5.339-1.762,6.324-4.665c0.259-0.777,0.363-1.659,0.363-2.436V-400.594z"/>
	<path fill="#231F20" d="M240.15-385.406l-0.363-3.162h-0.155c-1.4,1.97-4.095,3.732-7.671,3.732c-5.08,0-7.672-3.577-7.672-7.205
		c0-6.064,5.391-9.382,15.084-9.33v-0.519c0-2.073-0.57-5.805-5.702-5.805c-2.333,0-4.769,0.726-6.531,1.866l-1.037-3.006
		c2.073-1.348,5.08-2.229,8.242-2.229c7.671,0,9.538,5.235,9.538,10.263v9.382c0,2.177,0.104,4.302,0.415,6.013H240.15z
		 M239.477-398.209c-4.976-0.104-10.626,0.778-10.626,5.65c0,2.955,1.97,4.354,4.302,4.354c3.266,0,5.339-2.074,6.064-4.199
		c0.156-0.466,0.259-0.985,0.259-1.451V-398.209z"/>
	<path fill="#231F20" d="M251.244-403.704c0-2.592-0.052-4.717-0.207-6.791h4.043l0.259,4.147h0.104
		c1.244-2.384,4.147-4.717,8.293-4.717c3.473,0,8.864,2.073,8.864,10.678v14.98h-4.562v-14.462c0-4.043-1.503-7.412-5.805-7.412
		c-3.007,0-5.339,2.125-6.117,4.665c-0.208,0.57-0.311,1.348-0.311,2.125v15.083h-4.562V-403.704z"/>
	<path fill="#231F20" d="M282.553-397.121c0.104,6.168,4.043,8.708,8.604,8.708c3.266,0,5.235-0.57,6.946-1.296l0.777,3.266
		c-1.607,0.726-4.354,1.555-8.345,1.555c-7.723,0-12.336-5.08-12.336-12.648c0-7.567,4.458-13.528,11.766-13.528
		c8.19,0,10.367,7.205,10.367,11.818c0,0.933-0.104,1.659-0.156,2.125H282.553z M295.926-400.386
		c0.052-2.903-1.192-7.413-6.324-7.413c-4.613,0-6.635,4.25-6.998,7.413H295.926z"/>
	<path fill="#231F20" d="M305.361-390.071c1.348,0.881,3.732,1.814,6.013,1.814c3.317,0,4.872-1.659,4.872-3.732
		c0-2.177-1.296-3.369-4.665-4.613c-4.509-1.607-6.635-4.095-6.635-7.101c0-4.043,3.266-7.36,8.656-7.36
		c2.54,0,4.769,0.726,6.168,1.555l-1.14,3.317c-0.985-0.622-2.799-1.451-5.132-1.451c-2.695,0-4.199,1.555-4.199,3.421
		c0,2.074,1.503,3.006,4.769,4.25c4.354,1.659,6.583,3.836,6.583,7.568c0,4.406-3.421,7.516-9.382,7.516
		c-2.747,0-5.287-0.674-7.049-1.711L305.361-390.071z"/>
	<path fill="#231F20" d="M359.166-422.208v30.323c0,2.229,0.052,4.769,0.207,6.479h-4.095l-0.208-4.354h-0.104
		c-1.399,2.799-4.458,4.924-8.553,4.924c-6.064,0-10.729-5.132-10.729-12.751c-0.052-8.345,5.131-13.477,11.248-13.477
		c3.835,0,6.427,1.814,7.568,3.835h0.104v-14.98H359.166z M354.604-400.283c0-0.57-0.052-1.348-0.208-1.918
		c-0.674-2.902-3.162-5.287-6.583-5.287c-4.717,0-7.516,4.147-7.516,9.693c0,5.08,2.488,9.278,7.412,9.278
		c3.058,0,5.857-2.021,6.687-5.443c0.156-0.622,0.208-1.244,0.208-1.97V-400.283z"/>
	<path fill="#231F20" d="M369.274-397.121c0.104,6.168,4.043,8.708,8.604,8.708c3.266,0,5.235-0.57,6.946-1.296l0.777,3.266
		c-1.607,0.726-4.354,1.555-8.345,1.555c-7.723,0-12.336-5.08-12.336-12.648c0-7.567,4.458-13.528,11.766-13.528
		c8.19,0,10.367,7.205,10.367,11.818c0,0.933-0.104,1.659-0.156,2.125H369.274z M382.647-400.386
		c0.052-2.903-1.192-7.413-6.324-7.413c-4.613,0-6.635,4.25-6.998,7.413H382.647z"/>
</g>
<g>
</g>
<g>
	<path fill="#231F20" d="M-86.879-348.29l4.924,14.099c0.829,2.281,1.503,4.354,2.021,6.427h0.155
		c0.57-2.073,1.296-4.146,2.125-6.427l4.872-14.099h4.769l-9.849,25.088h-4.354l-9.538-25.088H-86.879z"/>
	<path fill="#231F20" d="M-61.636-334.917c0.104,6.168,4.043,8.708,8.604,8.708c3.266,0,5.235-0.57,6.946-1.296l0.777,3.266
		c-1.607,0.726-4.354,1.555-8.345,1.555c-7.723,0-12.336-5.08-12.336-12.648c0-7.567,4.458-13.528,11.766-13.528
		c8.19,0,10.367,7.205,10.367,11.818c0,0.933-0.104,1.659-0.156,2.125H-61.636z M-48.263-338.182
		c0.052-2.903-1.192-7.413-6.324-7.413c-4.613,0-6.635,4.25-6.998,7.413H-48.263z"/>
	<path fill="#231F20" d="M-17.213-330.044c0,2.592,0.052,4.873,0.207,6.842h-4.043l-0.259-4.095h-0.104
		c-1.192,2.021-3.836,4.665-8.293,4.665c-3.939,0-8.656-2.177-8.656-10.989v-14.669h4.562v13.892c0,4.769,1.451,7.982,5.598,7.982
		c3.058,0,5.183-2.125,6.013-4.146c0.259-0.674,0.415-1.503,0.415-2.333v-15.395h4.562V-330.044z"/>
	<path fill="#231F20" d="M-9.645-340.463c0-2.955-0.052-5.495-0.207-7.827h3.991l0.155,4.924h0.208
		c1.14-3.369,3.888-5.494,6.946-5.494c0.518,0,0.881,0.052,1.296,0.155v4.302c-0.467-0.104-0.933-0.155-1.555-0.155
		c-3.214,0-5.495,2.436-6.116,5.857c-0.104,0.622-0.208,1.348-0.208,2.125v13.373h-4.51V-340.463z"/>
	<path fill="#231F20" d="M9.379-334.917c0.104,6.168,4.043,8.708,8.604,8.708c3.266,0,5.235-0.57,6.946-1.296l0.777,3.266
		c-1.607,0.726-4.354,1.555-8.345,1.555c-7.723,0-12.336-5.08-12.336-12.648c0-7.567,4.458-13.528,11.766-13.528
		c8.19,0,10.367,7.205,10.367,11.818c0,0.933-0.104,1.659-0.156,2.125H9.379z M22.752-338.182c0.052-2.903-1.192-7.413-6.324-7.413
		c-4.613,0-6.635,4.25-6.998,7.413H22.752z"/>
	<path fill="#231F20" d="M49.293-355.495v7.205h6.531v3.473h-6.531v13.529c0,3.11,0.881,4.872,3.421,4.872
		c1.192,0,2.074-0.155,2.644-0.311l0.208,3.421c-0.881,0.363-2.281,0.622-4.043,0.622c-2.125,0-3.836-0.674-4.924-1.918
		c-1.296-1.348-1.762-3.577-1.762-6.531v-13.684h-3.888v-3.473h3.888v-6.013L49.293-355.495z"/>
	<path fill="#231F20" d="M83.4-335.953c0,9.278-6.428,13.321-12.492,13.321c-6.79,0-12.025-4.976-12.025-12.907
		c0-8.397,5.494-13.321,12.44-13.321C78.528-348.86,83.4-343.625,83.4-335.953z M63.496-335.694c0,5.495,3.162,9.641,7.62,9.641
		c4.354,0,7.62-4.095,7.62-9.745c0-4.25-2.125-9.641-7.516-9.641S63.496-340.463,63.496-335.694z"/>
	<path fill="#231F20" d="M94.649-355.495v7.205h6.531v3.473h-6.531v13.529c0,3.11,0.881,4.872,3.421,4.872
		c1.192,0,2.074-0.155,2.644-0.311l0.208,3.421c-0.881,0.363-2.281,0.622-4.043,0.622c-2.125,0-3.836-0.674-4.924-1.918
		c-1.296-1.348-1.762-3.577-1.762-6.531v-13.684h-3.888v-3.473h3.888v-6.013L94.649-355.495z"/>
	<path fill="#231F20" d="M119.841-334.917c0.104,6.168,4.043,8.708,8.604,8.708c3.266,0,5.235-0.57,6.946-1.296l0.777,3.266
		c-1.607,0.726-4.354,1.555-8.345,1.555c-7.723,0-12.336-5.08-12.336-12.648c0-7.567,4.458-13.528,11.766-13.528
		c8.19,0,10.367,7.205,10.367,11.818c0,0.933-0.104,1.659-0.156,2.125H119.841z M133.214-338.182
		c0.052-2.903-1.192-7.413-6.324-7.413c-4.613,0-6.635,4.25-6.998,7.413H133.214z"/>
	<path fill="#231F20" d="M143.271-360.004h4.562v36.802h-4.562V-360.004z"/>
	<path fill="#231F20" d="M168.307-348.29l3.317,12.751c0.726,2.799,1.399,5.391,1.866,7.982h0.156
		c0.57-2.54,1.399-5.235,2.229-7.931l4.095-12.803h3.836l3.887,12.544c0.933,3.006,1.659,5.65,2.229,8.19h0.155
		c0.415-2.54,1.089-5.184,1.918-8.138l3.577-12.596h4.51l-8.086,25.088h-4.146l-3.836-11.974c-0.881-2.799-1.607-5.287-2.229-8.242
		h-0.104c-0.622,3.006-1.399,5.598-2.281,8.293l-4.043,11.922h-4.146l-7.568-25.088H168.307z"/>
	<path fill="#231F20" d="M206.666-334.917c0.104,6.168,4.043,8.708,8.604,8.708c3.266,0,5.235-0.57,6.946-1.296l0.777,3.266
		c-1.607,0.726-4.354,1.555-8.345,1.555c-7.723,0-12.336-5.08-12.336-12.648c0-7.567,4.458-13.528,11.766-13.528
		c8.19,0,10.367,7.205,10.367,11.818c0,0.933-0.104,1.659-0.156,2.125H206.666z M220.039-338.182
		c0.052-2.903-1.192-7.413-6.324-7.413c-4.613,0-6.635,4.25-6.998,7.413H220.039z"/>
	<path fill="#231F20" d="M229.889-323.202c0.104-1.71,0.207-4.25,0.207-6.479v-30.323h4.51v15.758h0.104
		c1.607-2.799,4.51-4.613,8.553-4.613c6.22,0,10.626,5.183,10.574,12.803c0,8.967-5.65,13.425-11.248,13.425
		c-3.628,0-6.531-1.399-8.397-4.717h-0.156l-0.207,4.146H229.889z M234.605-333.258c0,0.57,0.104,1.14,0.208,1.659
		c0.881,3.162,3.524,5.339,6.842,5.339c4.769,0,7.62-3.888,7.62-9.641c0-5.028-2.592-9.33-7.464-9.33
		c-3.11,0-6.013,2.125-6.946,5.598c-0.104,0.519-0.259,1.141-0.259,1.866V-333.258z"/>
	<path fill="#231F20" d="M257.31-325.897c0-1.918,1.296-3.266,3.11-3.266c1.814,0,3.058,1.348,3.058,3.266
		c0,1.866-1.192,3.266-3.11,3.266C258.554-322.632,257.31-324.031,257.31-325.897z"/>
</g>
<line fill="none" stroke="#BBBDBF" x1="916.167" y1="505.669" x2="916.167" y2="0"/>
<line fill="none" stroke="#BBBDBF" x1="636.167" y1="505.669" x2="636.167" y2="0"/>
<line fill="none" stroke="#231F20" stroke-width="8" x1="157" y1="-26.796" x2="157" y2="-274.331"/>
<line fill="none" stroke="#BBBDBF" x1="1" y1="32.704" x2="636.667" y2="32.704"/>
<line fill="none" stroke="#BBBDBF" x1="1" y1="-151.063" x2="157" y2="-151.063"/>
<line fill="none" stroke="#231F20" stroke-width="8" x1="4" y1="113.204" x2="4" y2="33.204"/>
<g>
</g>
<g>
</g>
<g>
</g>
<g>
</g>
<g>
</g>
<g>
</g>
<g>
</g>
<g>
</g>
<g>
</g>
<g>
</g>
<g>
</g>
<g>
</g>
<g>
</g>
<g>
</g>
<g>
</g>
</svg>
